<?xml version="1.0" standalone="no"?>
  <!DOCTYPE svg PUBLIC "-//W3C//DTD SVG 1.1//EN" "http://www.w3.org/Graphics/SVG/1.1/DTD/svg11.dtd" >
  <svg>
  <metadata>
  Created by font-carrier
  </metadata>
  <defs>
  <font id="WiGuru 1" horiz-adv-x="1050" vert-adv-y="1050" >
    <font-face
      
      font-family="WiGuru 1"
      
      font-weight="400"
      
      font-stretch="normal"
      
      units-per-em="1000"
      
      ascent="750"
      
      descent="-250"
      
    />
      <missing-glyph />

      

      
      <glyph glyph-name="uni2d" unicode="&#x2d;" d="M26 400L226 400L226 300L26 300L26 400Z"  horiz-adv-x="253" vert-adv-y="1000"  />

      
      <glyph glyph-name="uni2e" unicode="&#x2e;" d="M132 106L132 0L26 0L26 106L132 106Z"  horiz-adv-x="160" vert-adv-y="1000"  />

      
      <glyph glyph-name="uni2f" unicode="&#x2f;" d="M279 700L374 700L98 0L3 0L279 700Z"  horiz-adv-x="377" vert-adv-y="1000"  />

      
      <glyph glyph-name="uni30" unicode="&#x30;" d="M133 161Q133 123 148.50 107.50Q164 92 190 92Q216 92 231.50 107.50Q247 123 247 161L247 539Q247 577 231.50 592.50Q216 608 190 608Q164 608 148.50 592.50Q133 577 133 539L133 161M23 532Q23 617 66 662.50Q109 708 190 708Q271 708 314 662.50Q357 617 357 532L357 168Q357 83 314 37.50Q271-8 190-8Q109-8 66 37.50Q23 83 23 168L23 532Z"  horiz-adv-x="381" vert-adv-y="1000"  />

      
      <glyph glyph-name="uni31" unicode="&#x31;" d="M3 612Q35 612 55.50 619Q76 626 89 638Q102 650 110 666Q118 682 124 700L198 700L198 0L88 0L88 534L3 534L3 612Z"  horiz-adv-x="225" vert-adv-y="1000"  />

      
      <glyph glyph-name="uni32" unicode="&#x32;" d="M241 528Q241 575 225.50 591.50Q210 608 184 608Q158 608 142.50 592.50Q127 577 127 539L127 464L23 464L23 532Q23 617 64.50 662.50Q106 708 187 708Q268 708 309.50 662.50Q351 617 351 532Q351 475 333.50 429Q316 383 290 345Q264 307 234 275.50Q204 244 180 215.50Q156 187 142 159Q128 131 133 100L341 100L341 0L23 0L23 86Q23 137 39 176Q55 215 79.50 247.50Q104 280 132 308.50Q160 337 184.50 369Q209 401 225 439Q241 477 241 528Z"  horiz-adv-x="371" vert-adv-y="1000"  />

      
      <glyph glyph-name="uni33" unicode="&#x33;" d="M237 528Q237 575 221.50 591.50Q206 608 180 608Q154 608 138.50 592.50Q123 577 123 539L123 494L19 494L19 532Q19 617 60.50 662.50Q102 708 183 708Q264 708 305.50 662.50Q347 617 347 532L347 514Q347 402 270 370Q312 352 329.50 314.50Q347 277 347 223L347 168Q347 83 305.50 37.50Q264-8 183-8Q102-8 60.50 37.50Q19 83 19 168L19 226L123 226L123 161Q123 123 138.50 107.50Q154 92 180 92Q206 92 221.50 108Q237 124 237 171L237 226Q237 275 220 295Q203 315 165 315L128 315L128 415L171 415Q202 415 219.50 431Q237 447 237 489L237 528Z"  horiz-adv-x="369" vert-adv-y="1000"  />

      
      <glyph glyph-name="uni34" unicode="&#x34;" d="M6 227L206 700L326 700L326 227L378 227L378 127L326 127L326 0L216 0L216 127L6 127L6 227M216 227L216 486L107 227L216 227Z"  horiz-adv-x="394" vert-adv-y="1000"  />

      
      <glyph glyph-name="uni35" unicode="&#x35;" d="M126 226L126 161Q126 123 141.50 108Q157 93 183 93Q209 93 224.50 108Q240 123 240 161L240 315Q240 353 224.50 368.50Q209 384 183 384Q157 384 141.50 368.50Q126 353 126 315L126 294L22 294L42 700L332 700L332 600L141 600L132 433Q163 484 228 484Q289 484 319.50 443Q350 402 350 324L350 168Q350 83 308.50 37.50Q267-8 186-8Q105-8 63.50 37.50Q22 83 22 168L22 226L126 226Z"  horiz-adv-x="371" vert-adv-y="1000"  />

      
      <glyph glyph-name="uni36" unicode="&#x36;" d="M23 526Q23 615 64 661.50Q105 708 191 708Q272 708 313.50 662.50Q355 617 355 532L355 514L251 514L251 539Q251 577 235.50 592.50Q220 608 194 608Q165 608 149 590Q133 572 133 522L133 394Q162 456 235 456Q296 456 326.50 415Q357 374 357 296L357 168Q357 83 314 37.50Q271-8 190-8Q109-8 66 37.50Q23 83 23 168L23 526M190 356Q164 356 148.50 340.50Q133 325 133 287L133 161Q133 123 148.50 108Q164 93 190 93Q216 93 231.50 108Q247 123 247 161L247 287Q247 325 231.50 340.50Q216 356 190 356Z"  horiz-adv-x="379" vert-adv-y="1000"  />

      
      <glyph glyph-name="uni37" unicode="&#x37;" d="M345 700L345 604L183 0L73 0L234 600L15 600L15 700L345 700Z"  horiz-adv-x="355" vert-adv-y="1000"  />

      
      <glyph glyph-name="uni38" unicode="&#x38;" d="M366 168Q366 83 322 37.50Q278-8 194-8Q110-8 66 37.50Q22 83 22 168L22 223Q22 274 38 311.50Q54 349 90 369Q22 406 22 510L22 532Q22 617 66 662.50Q110 708 194 708Q278 708 322 662.50Q366 617 366 532L366 510Q366 407 298 369Q334 349 350 311.50Q366 274 366 223L366 168M132 171Q132 124 150 108Q168 92 194 92Q220 92 237.50 108Q255 124 256 171L256 236Q256 278 239.50 296.50Q223 315 194 315Q165 315 148.50 296.50Q132 278 132 236L132 171M132 489Q132 447 149.50 431Q167 415 194 415Q220 415 238 431Q256 447 256 489L256 528Q256 575 238 591.50Q220 608 194 608Q168 608 150 591.50Q132 575 132 528L132 489Z"  horiz-adv-x="388" vert-adv-y="1000"  />

      
      <glyph glyph-name="uni39" unicode="&#x39;" d="M355 174Q355 85 314 38.50Q273-8 187-8Q106-8 64.50 37.50Q23 83 23 168L23 186L127 186L127 161Q127 123 142.50 107.50Q158 92 184 92Q213 92 229 110Q245 128 245 178L245 306Q216 244 143 244Q82 244 51.50 285Q21 326 21 404L21 532Q21 617 64 662.50Q107 708 188 708Q269 708 312 662.50Q355 617 355 532L355 174M188 344Q214 344 229.50 359.50Q245 375 245 413L245 539Q245 577 229.50 592Q214 607 188 607Q162 607 146.50 592Q131 577 131 539L131 413Q131 375 146.50 359.50Q162 344 188 344Z"  horiz-adv-x="379" vert-adv-y="1000"  />

      
      <glyph glyph-name="uni3a" unicode="&#x3a;" d="M132 106L132 0L26 0L26 106L132 106M132 487L132 381L26 381L26 487L132 487Z"  horiz-adv-x="139" vert-adv-y="1000"  />

      
      <glyph glyph-name="uni3b" unicode="&#x3b;" d="M19 0L19 106L125 106L125 11L77-100L32-100L61 0L19 0M125 487L125 381L19 381L19 487L125 487Z"  horiz-adv-x="144" vert-adv-y="1000"  />

      
      <glyph glyph-name="uni3c" unicode="&#x3c;" d="M3 311L3 389L329 509L329 430L105 350L329 270L329 191L3 311Z"  horiz-adv-x="348" vert-adv-y="1000"  />

      
      <glyph glyph-name="uni3d" unicode="&#x3d;" d="M352 308L352 230L26 230L26 308L352 308M352 470L352 392L26 392L26 470L352 470Z"  horiz-adv-x="364" vert-adv-y="1000"  />

      
      <glyph glyph-name="uni3e" unicode="&#x3e;" d="M26 191L26 270L250 350L26 430L26 509L352 389L352 311L26 191Z"  horiz-adv-x="355" vert-adv-y="1000"  />

      
      <glyph glyph-name="uni3f" unicode="&#x3f;" d="M111 155Q105 173 105 198Q105 236 114 264Q123 292 136 315.50Q149 339 165 360.50Q181 382 194 407Q207 432 216 463.50Q225 495 225 539Q225 577 210.50 592.50Q196 608 170 608Q144 608 129.50 592.50Q115 577 115 539L115 463L11 463L11 532Q11 617 51.50 662.50Q92 708 173 708Q254 708 294.50 662.50Q335 617 335 532Q335 486 325.50 452.50Q316 419 301.50 392Q287 365 270 342.50Q253 320 238.50 298Q224 276 214.50 251Q205 226 205 194Q205 172 209 155L111 155M212 106L212 0L106 0L106 106L212 106Z"  horiz-adv-x="346" vert-adv-y="1000"  />

      
      <glyph glyph-name="uni40" unicode="&#x40;" d="M471 127Q433 127 409.50 142.50Q386 158 383 193Q352 130 286 133Q233 135 210.50 174.50Q188 214 196 287L207 388Q215 462 245.50 500Q276 538 329 536Q391 535 411 474L417 532L513 532L483 243Q480 218 503 218Q524 218 539 239Q554 260 564 293Q574 326 578.50 366Q583 406 583 444Q583 491 571.50 530Q560 569 535.50 596.50Q511 624 473.50 639.50Q436 655 384 655Q317 655 266.50 629Q216 603 182 555Q148 507 130.50 438.50Q113 370 113 285Q113 164 170 94Q227 24 346 24Q374 24 400 27Q426 30 451 37.50Q476 45 501.50 58.50Q527 72 553 92L545-4Q495-37 445.50-48.50Q396-60 340-60Q256-60 195-34.50Q134-9 95 37.50Q56 84 37.50 148Q19 212 19 290Q19 383 42 464.50Q65 546 111 607.50Q157 669 226 704.50Q295 740 388 740Q467 740 520.50 717Q574 694 606 654Q638 614 652 560.50Q666 507 666 446Q666 354 646.50 292.50Q627 231 597.50 194Q568 157 534 142Q500 127 471 127M293 292Q289 257 301 242Q313 227 336 226Q359 225 373.50 239.50Q388 254 392 289L402 384Q405 413 392 426.50Q379 440 359 440Q336 441 321 426.50Q306 412 302 377L293 292Z"  horiz-adv-x="684" vert-adv-y="1000"  />

      
      <glyph glyph-name="uni41" unicode="&#x41;" d="M400 0L289 0L270 127L135 127L116 0L15 0L127 700L288 700L400 0M149 222L255 222L202 576L149 222Z"  horiz-adv-x="415" vert-adv-y="1000"  />

      
      <glyph glyph-name="uni42" unicode="&#x42;" d="M192 700Q278 700 316.50 660Q355 620 355 539L355 514Q355 460 338 425Q321 390 284 373Q329 356 347.50 317.50Q366 279 366 223L366 166Q366 85 324 42.50Q282 0 199 0L26 0L26 700L192 700M136 315L136 100L199 100Q227 100 241.50 115Q256 130 256 169L256 230Q256 279 239.50 297Q223 315 185 315L136 315M136 600L136 415L179 415Q210 415 227.50 431Q245 447 245 489L245 528Q245 566 231.50 583Q218 600 189 600L136 600Z"  horiz-adv-x="387" vert-adv-y="1000"  />

      
      <glyph glyph-name="uni43" unicode="&#x43;" d="M351 261L351 168Q351 83 309.50 37.50Q268-8 187-8Q106-8 64.50 37.50Q23 83 23 168L23 532Q23 617 64.50 662.50Q106 708 187 708Q268 708 309.50 662.50Q351 617 351 532L351 464L247 464L247 539Q247 577 231.50 592.50Q216 608 190 608Q164 608 148.50 592.50Q133 577 133 539L133 161Q133 123 148.50 108Q164 93 190 93Q216 93 231.50 108Q247 123 247 161L247 261L351 261Z"  horiz-adv-x="372" vert-adv-y="1000"  />

      
      <glyph glyph-name="uni44" unicode="&#x44;" d="M26 700L200 700Q283 700 323.50 656Q364 612 364 527L364 173Q364 88 323.50 44Q283 0 200 0L26 0L26 700M136 600L136 100L198 100Q224 100 239 115Q254 130 254 168L254 532Q254 570 239 585Q224 600 198 600L136 600Z"  horiz-adv-x="388" vert-adv-y="1000"  />

      
      <glyph glyph-name="uni45" unicode="&#x45;" d="M136 405L287 405L287 305L136 305L136 100L326 100L326 0L26 0L26 700L326 700L326 600L136 600L136 405Z"  horiz-adv-x="348" vert-adv-y="1000"  />

      
      <glyph glyph-name="uni46" unicode="&#x46;" d="M136 389L278 389L278 289L136 289L136 0L26 0L26 700L317 700L317 600L136 600L136 389Z"  horiz-adv-x="322" vert-adv-y="1000"  />

      
      <glyph glyph-name="uni47" unicode="&#x47;" d="M197 390L351 390L351 168Q351 83 309.50 37.50Q268-8 187-8Q106-8 64.50 37.50Q23 83 23 168L23 532Q23 617 64.50 662.50Q106 708 187 708Q268 708 309.50 662.50Q351 617 351 532L351 464L247 464L247 539Q247 577 231.50 592.50Q216 608 190 608Q164 608 148.50 592.50Q133 577 133 539L133 161Q133 123 148.50 108Q164 93 190 93Q216 93 231.50 108Q247 123 247 161L247 290L197 290L197 390Z"  horiz-adv-x="374" vert-adv-y="1000"  />

      
      <glyph glyph-name="uni48" unicode="&#x48;" d="M136 0L26 0L26 700L136 700L136 400L261 400L261 700L373 700L373 0L261 0L261 300L136 300L136 0Z"  horiz-adv-x="400" vert-adv-y="1000"  />

      
      <glyph glyph-name="uni49" unicode="&#x49;" d="M26 700L136 700L136 0L26 0L26 700Z"  horiz-adv-x="164" vert-adv-y="1000"  />

      
      <glyph glyph-name="uni4a" unicode="&#x4a;" d="M8 100Q17 99 27 99Q37 99 46 99Q72 99 90.50 112Q109 125 109 166L109 700L219 700L219 174Q219 121 206 87Q193 53 171 33.50Q149 14 120.50 6Q92-2 61-2Q46-2 34-2Q22-2 8 0L8 100Z"  horiz-adv-x="244" vert-adv-y="1000"  />

      
      <glyph glyph-name="uni4b" unicode="&#x4b;" d="M170 279L136 215L136 0L26 0L26 700L136 700L136 395L282 700L390 700L237 388L390 0L277 0L170 279Z"  horiz-adv-x="411" vert-adv-y="1000"  />

      
      <glyph glyph-name="uni4c" unicode="&#x4c;" d="M26 700L136 700L136 100L317 100L317 0L26 0L26 700Z"  horiz-adv-x="322" vert-adv-y="1000"  />

      
      <glyph glyph-name="uni4d" unicode="&#x4d;" d="M260 203L335 700L488 700L488 0L384 0L384 502L308 0L204 0L122 495L122 0L26 0L26 700L179 700L260 203Z"  horiz-adv-x="514" vert-adv-y="1000"  />

      
      <glyph glyph-name="uni4e" unicode="&#x4e;" d="M124 507L124 0L25 0L25 700L163 700L276 281L276 700L374 700L374 0L261 0L124 507Z"  horiz-adv-x="400" vert-adv-y="1000"  />

      
      <glyph glyph-name="uni4f" unicode="&#x4f;" d="M132 161Q132 123 147.50 107.50Q163 92 189 92Q215 92 230.50 107.50Q246 123 246 161L246 539Q246 577 230.50 592.50Q215 608 189 608Q163 608 147.50 592.50Q132 577 132 539L132 161M22 532Q22 617 65 662.50Q108 708 189 708Q270 708 313 662.50Q356 617 356 532L356 168Q356 83 313 37.50Q270-8 189-8Q108-8 65 37.50Q22 83 22 168L22 532Z"  horiz-adv-x="379" vert-adv-y="1000"  />

      
      <glyph glyph-name="uni50" unicode="&#x50;" d="M187 700Q270 700 310.50 656Q351 612 351 527L351 436Q351 351 310.50 307Q270 263 187 263L135 263L135 0L25 0L25 700L187 700M135 600L135 363L187 363Q213 363 227 377Q241 391 241 429L241 534Q241 572 227 586Q213 600 187 600L135 600Z"  horiz-adv-x="359" vert-adv-y="1000"  />

      
      <glyph glyph-name="uni51" unicode="&#x51;" d="M21 532Q21 617 64 662.50Q107 708 188 708Q269 708 312 662.50Q355 617 355 532L355 168Q355 109 334 70Q338 60 344.50 57.50Q351 55 365 55L375 55L375-43L360-43Q323-43 299.50-30.50Q276-18 265 5Q248-1 229-4.50Q210-8 188-8Q107-8 64 37.50Q21 83 21 168L21 532M131 161Q131 123 146.50 107.50Q162 92 188 92Q214 92 229.50 107.50Q245 123 245 161L245 539Q245 577 229.50 592.50Q214 608 188 608Q162 608 146.50 592.50Q131 577 131 539L131 161Z"  horiz-adv-x="395" vert-adv-y="1000"  />

      
      <glyph glyph-name="uni52" unicode="&#x52;" d="M255 0Q253 7 251 13Q249 19 247.50 28Q246 37 245.50 51Q245 65 245 86L245 196Q245 245 228 265Q211 285 173 285L135 285L135 0L25 0L25 700L191 700Q277 700 315.50 660Q354 620 354 539L354 484Q354 376 282 342Q324 325 339.50 286.50Q355 248 355 193L355 85Q355 59 357 39.50Q359 20 367 0L255 0M135 600L135 385L178 385Q209 385 226.50 401Q244 417 244 459L244 528Q244 566 230.50 583Q217 600 188 600L135 600Z"  horiz-adv-x="387" vert-adv-y="1000"  />

      
      <glyph glyph-name="uni53" unicode="&#x53;" d="M22 532Q22 617 62.50 662.50Q103 708 184 708Q265 708 305.50 662.50Q346 617 346 532L346 505L242 505L242 539Q242 577 227.50 592.50Q213 608 187 608Q161 608 146.50 592.50Q132 577 132 539Q132 503 148 475.50Q164 448 188 423.50Q212 399 239.50 374.50Q267 350 291 321Q315 292 331 255Q347 218 347 168Q347 83 305.50 37.50Q264-8 183-8Q102-8 60.50 37.50Q19 83 19 168L19 216L123 216L123 161Q123 123 138.50 108Q154 93 180 93Q206 93 221.50 108Q237 123 237 161Q237 197 221 224.50Q205 252 181 276.50Q157 301 129.50 325.50Q102 350 78 379Q54 408 38 445Q22 482 22 532Z"  horiz-adv-x="366" vert-adv-y="1000"  />

      
      <glyph glyph-name="uni54" unicode="&#x54;" d="M11 700L351 700L351 600L236 600L236 0L126 0L126 600L11 600L11 700Z"  horiz-adv-x="362" vert-adv-y="1000"  />

      
      <glyph glyph-name="uni55" unicode="&#x55;" d="M134 700L134 160Q134 122 149.50 107Q165 92 191 92Q217 92 232.50 107Q248 122 248 160L248 700L352 700L352 167Q352 82 310.50 36.50Q269-9 188-9Q107-9 65.50 36.50Q24 82 24 167L24 700L134 700Z"  horiz-adv-x="376" vert-adv-y="1000"  />

      
      <glyph glyph-name="uni56" unicode="&#x56;" d="M209 129L293 700L394 700L286 0L122 0L14 700L125 700L209 129Z"  horiz-adv-x="408" vert-adv-y="1000"  />

      
      <glyph glyph-name="uni57" unicode="&#x57;" d="M288 373L248 0L97 0L19 700L126 700L185 148L238 700L344 700L399 144L456 700L552 700L474 0L328 0L288 373Z"  horiz-adv-x="571" vert-adv-y="1000"  />

      
      <glyph glyph-name="uni58" unicode="&#x58;" d="M412 700L297 360L420 0L304 0L214 277L123 0L20 0L143 360L28 700L142 700L225 442L310 700L412 700Z"  horiz-adv-x="441" vert-adv-y="1000"  />

      
      <glyph glyph-name="uni59" unicode="&#x59;" d="M149 232L10 700L125 700L209 381L293 700L398 700L259 232L259 0L149 0L149 232Z"  horiz-adv-x="408" vert-adv-y="1000"  />

      
      <glyph glyph-name="uni5a" unicode="&#x5a;" d="M343 700L343 602L134 100L343 100L343 0L21 0L21 98L230 600L31 600L31 700L343 700Z"  horiz-adv-x="366" vert-adv-y="1000"  />

      
      <glyph glyph-name="uni5b" unicode="&#x5b;" d="M25 700L207 700L207 610L135 610L135 90L207 90L207 0L25 0L25 700Z"  horiz-adv-x="228" vert-adv-y="1000"  />

      
      <glyph glyph-name="uni5c" unicode="&#x5c;" d="M374 0L279 0L3 700L98 700L374 0Z"  horiz-adv-x="377" vert-adv-y="1000"  />

      
      <glyph glyph-name="uni5d" unicode="&#x5d;" d="M202 0L20 0L20 90L92 90L92 610L20 610L20 700L202 700L202 0Z"  horiz-adv-x="228" vert-adv-y="1000"  />

      
      <glyph glyph-name="uni5e" unicode="&#x5e;" d="M150 700L228 700L367 390L279 390L189 600L99 390L11 390L150 700Z"  horiz-adv-x="378" vert-adv-y="1000"  />

      
      <glyph glyph-name="uni5f" unicode="&#x5f;" d="M25-10L525-10L525-90L25-90L25-10Z"  horiz-adv-x="550" vert-adv-y="1000"  />

      
      <glyph glyph-name="uni60" unicode="&#x60;" d="M125 851L197 734L114 734L6 851L125 851Z"  horiz-adv-x="210" vert-adv-y="1000"  />

      
      <glyph glyph-name="uni7b" unicode="&#x7b;" d="M99 350Q118 345 130.50 335.50Q143 326 150 314Q157 302 160 288.50Q163 275 164 261L169 161Q171 119 183.50 104.50Q196 90 222 90L238 90L238 0L182 0Q135 0 105 27Q75 54 71 111L63 245Q61 280 50.50 292.50Q40 305 8 305L8 395Q40 395 50.50 407.50Q61 420 63 455L71 589Q75 646 105 673Q135 700 182 700L238 700L238 610L222 610Q196 610 183.50 595.50Q171 581 169 539L164 439Q163 425 160 411Q157 397 150 385Q143 373 130.50 364Q118 355 99 350Z"  horiz-adv-x="261" vert-adv-y="1000"  />

      
      <glyph glyph-name="uni7c" unicode="&#x7c;" d="M25 765L115 765L115-65L25-65L25 765Z"  horiz-adv-x="142" vert-adv-y="1000"  />

      
      <glyph glyph-name="uni7d" unicode="&#x7d;" d="M161 350Q123 360 110 385.50Q97 411 96 439L91 539Q89 581 76.50 595.50Q64 610 38 610L22 610L22 700L78 700Q125 700 155 673Q185 646 189 589L197 455Q199 420 209.50 407.50Q220 395 252 395L252 305Q220 305 209.50 292.50Q199 280 197 245L189 111Q185 54 155 27Q125 0 78 0L22 0L22 90L38 90Q64 90 76.50 104.50Q89 119 91 161L96 261Q97 289 110 314.50Q123 340 161 350Z"  horiz-adv-x="260" vert-adv-y="1000"  />

      
      <glyph glyph-name="uni7e" unicode="&#x7e;" d="M18 332Q36 359 51.50 376Q67 393 81 403.50Q95 414 109 418Q123 422 137 422Q157 422 176 412.50Q195 403 213 391.50Q231 380 247.50 370.50Q264 361 280 361Q297 361 310 373.50Q323 386 346 418L398 364Q362 311 334.50 294.50Q307 278 279 278Q259 278 240 287.50Q221 297 203 308.50Q185 320 168.50 329.50Q152 339 136 339Q119 339 106 326.50Q93 314 70 282L18 332Z"  horiz-adv-x="416" vert-adv-y="1000"  />

      
      <glyph glyph-name="uni20AC" unicode="&#x20AC;" d="M17 435L45 435L45 532Q45 617 85 662.50Q125 708 206 708Q287 708 327 662.50Q367 617 367 532L367 474L263 474L263 539Q263 577 249 592.50Q235 608 209 608Q183 608 169 592.50Q155 577 155 539L155 435L309 435L309 380L155 380L155 325L309 325L309 270L155 270L155 161Q155 123 169 108Q183 93 209 93Q235 93 249 108Q263 123 263 161L263 231L367 231L367 168Q367 83 327 37.50Q287-8 206-8Q125-8 85 37.50Q45 83 45 168L45 270L17 270L17 325L45 325L45 380L17 380L17 435Z"  horiz-adv-x="387" vert-adv-y="1000"  />

      
      <glyph glyph-name="uni201A" unicode="&#x201A;" d="M20 0L20 106L126 106L126 11L78-100L33-100L62 0L20 0Z"  horiz-adv-x="142" vert-adv-y="1000"  />

      
      <glyph glyph-name="uni2018" unicode="&#x2018;" d="M122 600L122 494L16 494L16 589L64 700L109 700L80 600L122 600Z"  horiz-adv-x="143" vert-adv-y="1000"  />

      
      <glyph glyph-name="uni2019" unicode="&#x2019;" d="M20 594L20 700L126 700L126 605L78 494L33 494L62 594L20 594Z"  horiz-adv-x="142" vert-adv-y="1000"  />

      
      <glyph glyph-name="uni201C" unicode="&#x201C;" d="M127 600L127 494L21 494L21 589L69 700L114 700L85 600L127 600M273 600L273 494L167 494L167 589L215 700L260 700L231 600L273 600Z"  horiz-adv-x="296" vert-adv-y="1000"  />

      
      <glyph glyph-name="uni201D" unicode="&#x201D;" d="M23 594L23 700L129 700L129 605L81 494L36 494L65 594L23 594M169 594L169 700L275 700L275 605L227 494L182 494L211 594L169 594Z"  horiz-adv-x="296" vert-adv-y="1000"  />

      
      <glyph glyph-name="uni2022" unicode="&#x2022;" d="M17 350Q17 379 28 404.50Q39 430 57.50 448.50Q76 467 101.50 478Q127 489 156 489Q185 489 210.50 478Q236 467 254.50 448.50Q273 430 284 404.50Q295 379 295 350Q295 321 284 295.50Q273 270 254.50 251.50Q236 233 210.50 222Q185 211 156 211Q127 211 101.50 222Q76 233 57.50 251.50Q39 270 28 295.50Q17 321 17 350Z"  horiz-adv-x="312" vert-adv-y="1000"  />

      
      <glyph glyph-name="uni2013" unicode="&#x2013;" d="M25 395L525 395L525 305L25 305L25 395Z"  horiz-adv-x="550" vert-adv-y="1000"  />

      
      <glyph glyph-name="uni2014" unicode="&#x2014;" d="M25 395L1025 395L1025 305L25 305L25 395Z"  horiz-adv-x="1050" vert-adv-y="1000"  />

      
      <glyph glyph-name="uni02DC" unicode="&#x02DC;" d="M315 805Q290 761 268.50 747.50Q247 734 220 734Q203 734 189 738Q175 742 163 747.50Q151 753 140 757Q129 761 117 761Q103 761 93 754.50Q83 748 73 728L17 770Q42 814 63.50 827.50Q85 841 112 841Q129 841 143 837Q157 833 169 827.50Q181 822 192 818Q203 814 215 814Q229 814 239 820.50Q249 827 259 847L315 805Z"  horiz-adv-x="331" vert-adv-y="1000"  />

      
      <glyph glyph-name="uni2122" unicode="&#x2122;" d="M427 450L474 700L571 700L571 344L505 344L505 597L458 344L392 344L339 595L339 344L278 344L278 700L375 700L427 450M20 700L236 700L236 636L163 636L163 344L93 344L93 636L20 636L20 700Z"  horiz-adv-x="596" vert-adv-y="1000"  />

      
      <glyph glyph-name="uni0161" unicode="&#x0161;" d="M19 532Q19 617 59.50 662.50Q100 708 181 708Q262 708 302.50 662.50Q343 617 343 532L343 505L239 505L239 539Q239 577 224.50 592.50Q210 608 184 608Q158 608 143.50 592.50Q129 577 129 539Q129 503 145 475.50Q161 448 185 423.50Q209 399 236.50 374.50Q264 350 288 321Q312 292 328 255Q344 218 344 168Q344 83 302.50 37.50Q261-8 180-8Q99-8 57.50 37.50Q16 83 16 168L16 216L120 216L120 161Q120 123 135.50 108Q151 93 177 93Q203 93 218.50 108Q234 123 234 161Q234 197 218 224.50Q202 252 178 276.50Q154 301 126.50 325.50Q99 350 75 379Q51 408 35 445Q19 482 19 532M133 851L179 792L226 851L325 851L232 734L127 734L34 851L133 851Z"  horiz-adv-x="359" vert-adv-y="1000"  />

      
      <glyph glyph-name="uni203A" unicode="&#x203A;" d="M125 617L185 351L125 69L21 69L80 351L21 617L125 617Z"  horiz-adv-x="196" vert-adv-y="1000"  />

      
      <glyph glyph-name="uni0153" unicode="&#x0153;" d="M361 405L512 405L512 305L361 305L361 100L551 100L551 0L187 0Q104 0 63.50 44Q23 88 23 173L23 527Q23 612 63.50 656Q104 700 187 700L551 700L551 600L361 600L361 405M251 600L189 600Q163 600 148 585Q133 570 133 532L133 168Q133 130 148 115Q163 100 189 100L251 100L251 600Z"  horiz-adv-x="574" vert-adv-y="1000"  />

      
      <glyph glyph-name="uni201E" unicode="&#x201E;" d="M23 0L23 106L129 106L129 11L81-100L36-100L65 0L23 0M169 0L169 106L275 106L275 11L227-100L182-100L211 0L169 0Z"  horiz-adv-x="296" vert-adv-y="1000"  />

      
      <glyph glyph-name="uni2026" unicode="&#x2026;" d="M131 106L131 0L25 0L25 106L131 106M277 106L277 0L171 0L171 106L277 106M423 106L423 0L317 0L317 106L423 106Z"  horiz-adv-x="448" vert-adv-y="1000"  />

      
      <glyph glyph-name="uni2020" unicode="&#x2020;" d="M4 525L132 525L132 700L222 700L222 525L350 525L350 440L222 440L222-65L132-65L132 440L4 440L4 525Z"  horiz-adv-x="354" vert-adv-y="1000"  />

      
      <glyph glyph-name="uni2021" unicode="&#x2021;" d="M6 525L134 525L134 700L224 700L224 525L352 525L352 440L224 440L224 195L352 195L352 110L224 110L224-65L134-65L134 110L6 110L6 195L134 195L134 440L6 440L6 525Z"  horiz-adv-x="358" vert-adv-y="1000"  />

      
      <glyph glyph-name="uni02C6" unicode="&#x02C6;" d="M14 734L107 851L212 851L305 734L206 734L159 792L113 734L14 734Z"  horiz-adv-x="319" vert-adv-y="1000"  />

      
      <glyph glyph-name="uni2030" unicode="&#x2030;" d="M90 358Q90 314 126 314Q143 314 152.50 324.50Q162 335 162 358L162 598Q162 621 152.50 631.50Q143 642 126 642Q90 642 90 598L90 358M20 593Q20 647 47 676Q74 705 126 705Q178 705 205 676Q232 647 232 593L232 363Q232 309 205 280Q178 251 126 251Q74 251 47 280Q20 309 20 363L20 593M402 700L467 700L191 0L126 0L402 700M437 99Q437 55 473 55Q490 55 499.50 65.50Q509 76 509 99L509 339Q509 362 499.50 372.50Q490 383 473 383Q437 383 437 339L437 99M367 334Q367 388 394 417Q421 446 473 446Q525 446 552 417Q579 388 579 334L579 104Q579 50 552 21Q525-8 473-8Q421-8 394 21Q367 50 367 104L367 334M693 99Q693 55 729 55Q746 55 755.50 65.50Q765 76 765 99L765 339Q765 362 755.50 372.50Q746 383 729 383Q693 383 693 339L693 99M623 334Q623 388 650 417Q677 446 729 446Q781 446 808 417Q835 388 835 334L835 104Q835 50 808 21Q781-8 729-8Q677-8 650 21Q623 50 623 104L623 334Z"  horiz-adv-x="848" vert-adv-y="1000"  />

      
      <glyph glyph-name="uni0160" unicode="&#x0160;" d="M19 532Q19 617 59.50 662.50Q100 708 181 708Q262 708 302.50 662.50Q343 617 343 532L343 505L239 505L239 539Q239 577 224.50 592.50Q210 608 184 608Q158 608 143.50 592.50Q129 577 129 539Q129 503 145 475.50Q161 448 185 423.50Q209 399 236.50 374.50Q264 350 288 321Q312 292 328 255Q344 218 344 168Q344 83 302.50 37.50Q261-8 180-8Q99-8 57.50 37.50Q16 83 16 168L16 216L120 216L120 161Q120 123 135.50 108Q151 93 177 93Q203 93 218.50 108Q234 123 234 161Q234 197 218 224.50Q202 252 178 276.50Q154 301 126.50 325.50Q99 350 75 379Q51 408 35 445Q19 482 19 532M134 851L180 792L227 851L326 851L233 734L128 734L35 851L134 851Z"  horiz-adv-x="359" vert-adv-y="1000"  />

      
      <glyph glyph-name="uni2039" unicode="&#x2039;" d="M175 617L116 351L175 69L71 69L11 351L71 617L175 617Z"  horiz-adv-x="196" vert-adv-y="1000"  />

      
      <glyph glyph-name="uni0152" unicode="&#x0152;" d="M361 405L512 405L512 305L361 305L361 100L551 100L551 0L187 0Q104 0 63.50 44Q23 88 23 173L23 527Q23 612 63.50 656Q104 700 187 700L551 700L551 600L361 600L361 405M251 600L189 600Q163 600 148 585Q133 570 133 532L133 168Q133 130 148 115Q163 100 189 100L251 100L251 600Z"  horiz-adv-x="574" vert-adv-y="1000"  />

      
      <glyph glyph-name="uni017D" unicode="&#x017D;" d="M337 700L337 602L128 100L337 100L337 0L15 0L15 98L224 600L25 600L25 700L337 700M132 851L178 792L225 851L324 851L231 734L126 734L33 851L132 851Z"  horiz-adv-x="351" vert-adv-y="1000"  />

      
      <glyph glyph-name="uni017E" unicode="&#x017E;" d="M337 700L337 602L128 100L337 100L337 0L15 0L15 98L224 600L25 600L25 700L337 700M132 851L178 792L225 851L324 851L231 734L126 734L33 851L132 851Z"  horiz-adv-x="351" vert-adv-y="1000"  />

      
      <glyph glyph-name="uni0178" unicode="&#x0178;" d="M147 232L8 700L123 700L207 381L291 700L396 700L257 232L257 0L147 0L147 232M177 836L177 734L75 734L75 836L177 836M337 836L337 734L235 734L235 836L337 836Z"  horiz-adv-x="404" vert-adv-y="1000"  />

      
      <glyph glyph-name="unia1" unicode="&#xa1;" d="M119 545L133 292L133 0L23 0L23 292L37 545L119 545M25 594L25 700L131 700L131 594L25 594Z"  horiz-adv-x="157" vert-adv-y="1000"  />

      
      <glyph glyph-name="unia2" unicode="&#xa2;" d="M136 37Q78 49 48.50 92.50Q19 136 19 208L19 492Q19 563 48.50 606.50Q78 650 136 663L136 715L226 715L226 664Q286 652 316.50 608Q347 564 347 492L347 444L243 444L243 499Q243 537 227.50 552.50Q212 568 186 568Q160 568 144.50 552.50Q129 537 129 499L129 201Q129 163 144.50 148Q160 133 186 133Q212 133 227.50 148Q243 163 243 201L243 281L347 281L347 208Q347 136 316.50 91.50Q286 47 226 36L226-15L136-15L136 37Z"  horiz-adv-x="362" vert-adv-y="1000"  />

      
      <glyph glyph-name="unia3" unicode="&#xa3;" d="M34 295L101 295Q92 321 80 344Q68 367 56.50 393.50Q45 420 37.50 453Q30 486 30 532Q30 617 70.50 662.50Q111 708 192 708Q273 708 313.50 662.50Q354 617 354 532L354 463L250 463L250 539Q250 577 235.50 592.50Q221 608 195 608Q169 608 154.50 592.50Q140 577 140 539Q140 492 148 459Q156 426 166.50 399Q177 372 188.50 347.50Q200 323 207 295L328 295L328 210L214 210Q210 172 195.50 145Q181 118 158 100L347 100L347 0L20 0L20 96Q59 96 86 126Q113 156 115 210L34 210L34 295Z"  horiz-adv-x="373" vert-adv-y="1000"  />

      
      <glyph glyph-name="unia5" unicode="&#xa5;" d="M394 700L266 271L349 271L349 216L258 216L258 171L349 171L349 116L258 116L258 0L148 0L148 116L57 116L57 171L148 171L148 216L57 216L57 271L139 271L12 700L127 700L208 391L289 700L394 700Z"  horiz-adv-x="406" vert-adv-y="1000"  />

      
      <glyph glyph-name="unia6" unicode="&#xa6;" d="M25 765L115 765L115 410L25 410L25 765M25 290L115 290L115-65L25-65L25 290Z"  horiz-adv-x="136" vert-adv-y="1000"  />

      
      <glyph glyph-name="unia7" unicode="&#xa7;" d="M21 314Q21 352 38 384Q55 416 90 436Q61 455 41 484.50Q21 514 21 566Q21 626 62 667Q103 708 183 708Q264 708 304.50 670Q345 632 345 572L345 536L241 536L241 557Q241 584 226.50 600.50Q212 617 186 617Q131 617 131 561Q131 540 147 527Q163 514 187 502.50Q211 491 238.50 478.50Q266 466 290 446Q314 426 330 396.50Q346 367 346 321Q346 283 328.50 250.50Q311 218 276 198Q305 180 325.50 150Q346 120 346 69Q346 9 305-32Q264-73 184-73Q103-73 62.50-35Q22 3 22 63L22 113L126 113L126 78Q126 51 140.50 34.50Q155 18 181 18Q236 18 236 74Q236 95 220 108Q204 121 180 132.50Q156 144 128.50 156.50Q101 169 77 189Q53 209 37 238.50Q21 268 21 314M126 318Q126 288 143.50 271Q161 254 187 241Q212 245 226.50 267Q241 289 241 317Q241 346 223 363Q205 380 179 393Q154 389 140 367.50Q126 346 126 318Z"  horiz-adv-x="367" vert-adv-y="1000"  />

      
      <glyph glyph-name="unia8" unicode="&#xa8;" d="M127 836L127 734L25 734L25 836L127 836M287 836L287 734L185 734L185 836L287 836Z"  horiz-adv-x="313" vert-adv-y="1000"  />

      
      <glyph glyph-name="unia9" unicode="&#xa9;" d="M474 308L474 252Q474 193 446 161.50Q418 130 361 130Q304 130 276 161.50Q248 193 248 252L248 446Q248 506 276 538Q304 570 361 570Q418 570 446 538Q474 506 474 446L474 410L402 410L402 452Q402 478 391.50 489Q381 500 363 500Q345 500 334.50 489Q324 478 324 452L324 248Q324 222 334.50 211.50Q345 201 363 201Q381 201 391.50 211.50Q402 222 402 248L402 308L474 308M17 350Q17 428 43.50 493.50Q70 559 116.50 607Q163 655 227 681.50Q291 708 365 708Q439 708 503 681.50Q567 655 613.50 607Q660 559 686.50 493.50Q713 428 713 350Q713 272 686.50 206.50Q660 141 613.50 93Q567 45 503 18.50Q439-8 365-8Q291-8 227 18.50Q163 45 116.50 93Q70 141 43.50 206.50Q17 272 17 350M89 350Q89 287 110 234.50Q131 182 168 143.50Q205 105 255.50 83.50Q306 62 365 62Q424 62 474.50 83.50Q525 105 562 143.50Q599 182 620 234.50Q641 287 641 350Q641 413 620 465.50Q599 518 562 556.50Q525 595 474.50 616.50Q424 638 365 638Q306 638 255.50 616.50Q205 595 168 556.50Q131 518 110 465.50Q89 413 89 350Z"  horiz-adv-x="730" vert-adv-y="1000"  />

      
      <glyph glyph-name="uniaa" unicode="&#xaa;" d="M19 433Q19 469 29.50 492.50Q40 516 59 530Q78 544 104 550.50Q130 557 161 558L161 604Q161 641 133 641Q116 641 107.50 631.50Q99 622 99 598L99 575L33 575L33 594Q33 647 58.50 676Q84 705 136 705Q187 705 209 676Q231 647 231 594L231 333L172 333L168 381Q151 328 97 328Q19 328 19 429L19 433M231 287L231 218L19 218L19 287L231 287M89 435Q89 411 98.50 401.50Q108 392 125 392Q141 392 150 400Q159 408 161 428L161 506Q138 505 123.50 499Q109 493 101.50 484Q94 475 91.50 464.50Q89 454 89 444L89 435Z"  horiz-adv-x="255" vert-adv-y="1000"  />

      
      <glyph glyph-name="uniab" unicode="&#xab;" d="M178 608L117 351L178 78L79 78L17 351L79 608L178 608M340 608L279 351L340 78L241 78L179 351L241 608L340 608Z"  horiz-adv-x="363" vert-adv-y="1000"  />

      
      <glyph glyph-name="uniac" unicode="&#xac;" d="M350 389L350 174L272 174L272 311L4 311L4 389L350 389Z"  horiz-adv-x="376" vert-adv-y="1000"  />

      
      <glyph glyph-name="uniad" unicode="&#xad;" d="M25 400L225 400L225 300L25 300L25 400Z"  horiz-adv-x="251" vert-adv-y="1000"  />

      
      <glyph glyph-name="uniae" unicode="&#xae;" d="M17 350Q17 428 43.50 493.50Q70 559 116.50 607Q163 655 227 681.50Q291 708 365 708Q439 708 503 681.50Q567 655 613.50 607Q660 559 686.50 493.50Q713 428 713 350Q713 272 686.50 206.50Q660 141 613.50 93Q567 45 503 18.50Q439-8 365-8Q291-8 227 18.50Q163 45 116.50 93Q70 141 43.50 206.50Q17 272 17 350M89 350Q89 287 110 234.50Q131 182 168 143.50Q205 105 255.50 83.50Q306 62 365 62Q424 62 474.50 83.50Q525 105 562 143.50Q599 182 620 234.50Q641 287 641 350Q641 413 620 465.50Q599 518 562 556.50Q525 595 474.50 616.50Q424 638 365 638Q306 638 255.50 616.50Q205 595 168 556.50Q131 518 110 465.50Q89 413 89 350M415 136Q413 141 411.50 145.50Q410 150 409.50 156Q409 162 408.50 171.50Q408 181 408 196L408 242Q408 277 395.50 290.50Q383 304 357 304L331 304L331 136L255 136L255 564L371 564Q430 564 457 536.50Q484 509 484 452L484 443Q484 367 432 344Q461 332 472.50 305.50Q484 279 484 241L484 195Q484 178 485.50 164Q487 150 493 136L415 136M331 494L331 374L362 374Q383 374 395.50 385Q408 396 408 425L408 443Q408 494 367 494L331 494Z"  horiz-adv-x="730" vert-adv-y="1000"  />

      
      <glyph glyph-name="uniaf" unicode="&#xaf;" d="M267 821L267 739L25 739L25 821L267 821Z"  horiz-adv-x="293" vert-adv-y="1000"  />

      
      <glyph glyph-name="unib0" unicode="&#xb0;" d="M17 609Q17 651 45.50 679.50Q74 708 116 708Q158 708 186.50 679.50Q215 651 215 609Q215 567 186.50 538.50Q158 510 116 510Q74 510 45.50 538.50Q17 567 17 609M67 609Q67 589 81.50 574.50Q96 560 116 560Q136 560 150.50 574.50Q165 589 165 609Q165 629 150.50 643.50Q136 658 116 658Q96 658 81.50 643.50Q67 629 67 609Z"  horiz-adv-x="233" vert-adv-y="1000"  />

      
      <glyph glyph-name="unib1" unicode="&#xb1;" d="M217 389L351 389L351 311L217 311L217 174L139 174L139 311L5 311L5 389L139 389L139 524L217 524L217 389Z"  horiz-adv-x="356" vert-adv-y="1000"  />

      
      <glyph glyph-name="unib2" unicode="&#xb2;" d="M160 593Q160 622 150.50 632.50Q141 643 124 643Q107 643 97.50 633Q88 623 88 599L88 552L22 552L22 595Q22 649 48 677.50Q74 706 126 706Q178 706 204 677.50Q230 649 230 595Q230 559 219 529.50Q208 500 191.50 476Q175 452 156 432.50Q137 413 121.50 394.50Q106 376 97 358Q88 340 92 321L224 321L224 258L22 258L22 312Q22 345 32 369Q42 393 57.50 413.50Q73 434 91 452.50Q109 471 124.50 491.50Q140 512 150 536.50Q160 561 160 593Z"  horiz-adv-x="249" vert-adv-y="1000"  />

      
      <glyph glyph-name="unib3" unicode="&#xb3;" d="M157 399Q157 431 146 443Q135 455 112 455L88 455L88 518L115 518Q135 518 146 529Q157 540 157 566L157 591Q157 621 147.50 631.50Q138 642 121 642Q104 642 94.50 631.50Q85 621 85 598L85 570L19 570L19 593Q19 647 45 676Q71 705 123 705Q175 705 201 676Q227 647 227 593L227 582Q227 511 178 491Q204 480 215.50 456Q227 432 227 398L227 363Q227 309 201 280Q175 251 123 251Q71 251 45 280Q19 309 19 363L19 399L85 399L85 358Q85 335 94.50 324.50Q104 314 121 314Q138 314 147.50 324.50Q157 335 157 365L157 399Z"  horiz-adv-x="248" vert-adv-y="1000"  />

      
      <glyph glyph-name="unib4" unicode="&#xb4;" d="M198 851L90 734L12 734L84 851L198 851Z"  horiz-adv-x="204" vert-adv-y="1000"  />

      
      <glyph glyph-name="unib6" unicode="&#xb6;" d="M354-65L274-65L274 620L220 620L220-65L140-65L142 265Q79 265 45.50 313Q12 361 12 436L12 527Q12 612 52.50 656Q93 700 176 700L354 700L354-65Z"  horiz-adv-x="380" vert-adv-y="1000"  />

      
      <glyph glyph-name="unib7" unicode="&#xb7;" d="M131 403L131 297L25 297L25 403L131 403Z"  horiz-adv-x="158" vert-adv-y="1000"  />

      
      <glyph glyph-name="unib8" unicode="&#xb8;" d="M10-99L74-99L74-109Q74-120 80.50-123.50Q87-127 95-127Q121-127 121-101Q121-73 85-73L74-73L74 14L124 14L124-39Q153-39 170-54.50Q187-70 187-96Q187-141 160-159.50Q133-178 96-178Q62-178 36-161Q10-144 10-109L10-99Z"  horiz-adv-x="201" vert-adv-y="1000"  />

      
      <glyph glyph-name="unib9" unicode="&#xb9;" d="M3 644Q23 644 36 648.50Q49 653 57.50 660.50Q66 668 71 678.50Q76 689 81 700L127 700L127 256L57 256L57 595L3 595L3 644Z"  horiz-adv-x="154" vert-adv-y="1000"  />

      
      <glyph glyph-name="uniba" unicode="&#xba;" d="M92 435Q92 411 101.50 401.50Q111 392 128 392Q145 392 154.50 401.50Q164 411 164 435L164 598Q164 622 154.50 631.50Q145 641 128 641Q111 641 101.50 631.50Q92 622 92 598L92 435M22 594Q22 647 49 676Q76 705 128 705Q180 705 207 676Q234 647 234 594L234 439Q234 386 207 357Q180 328 128 328Q76 328 49 357Q22 386 22 439L22 594M234 287L234 218L22 218L22 287L234 287Z"  horiz-adv-x="256" vert-adv-y="1000"  />

      
      <glyph glyph-name="unibb" unicode="&#xbb;" d="M284 608L346 351L284 78L185 78L246 351L185 608L284 608M122 608L184 351L122 78L23 78L84 351L23 608L122 608Z"  horiz-adv-x="363" vert-adv-y="1000"  />

      
      <glyph glyph-name="unibc" unicode="&#xbc;" d="M15 644Q35 644 48 648.50Q61 653 69.50 660.50Q78 668 83 678.50Q88 689 93 700L139 700L139 256L69 256L69 595L15 595L15 644M386 700L451 700L175 0L110 0L386 700M321 141L448 441L524 441L524 141L557 141L557 77L524 77L524-3L455-3L455 77L321 77L321 141M455 141L455 305L384 141L455 141Z"  horiz-adv-x="574" vert-adv-y="1000"  />

      
      <glyph glyph-name="unibd" unicode="&#xbd;" d="M16 644Q36 644 49 648.50Q62 653 70.50 660.50Q79 668 84 678.50Q89 689 94 700L140 700L140 256L70 256L70 595L16 595L16 644M357 700L422 700L146 0L81 0L357 700M478 334Q478 363 468.50 373.50Q459 384 442 384Q425 384 415.50 374Q406 364 406 340L406 293L340 293L340 336Q340 390 366 418.50Q392 447 444 447Q496 447 522 418.50Q548 390 548 336Q548 300 537 270.50Q526 241 509.50 217Q493 193 474 173.50Q455 154 439.50 135.50Q424 117 415 99Q406 81 410 62L542 62L542-1L340-1L340 53Q340 85 350 109.50Q360 134 375.50 154.50Q391 175 409 193.50Q427 212 442.50 232.50Q458 253 468 277.50Q478 302 478 334Z"  horiz-adv-x="563" vert-adv-y="1000"  />

      
      <glyph glyph-name="unibe" unicode="&#xbe;" d="M153 399Q153 431 142 443Q131 455 108 455L84 455L84 518L111 518Q131 518 142 529Q153 540 153 566L153 591Q153 621 143.50 631.50Q134 642 117 642Q100 642 90.50 631.50Q81 621 81 598L81 570L15 570L15 593Q15 647 41 676Q67 705 119 705Q171 705 197 676Q223 647 223 593L223 582Q223 511 174 491Q200 480 211.50 456Q223 432 223 398L223 363Q223 309 197 280Q171 251 119 251Q67 251 41 280Q15 309 15 363L15 399L81 399L81 358Q81 335 90.50 324.50Q100 314 117 314Q134 314 143.50 324.50Q153 335 153 365L153 399M425 700L490 700L214 0L149 0L425 700M350 141L477 441L553 441L553 141L586 141L586 77L553 77L553-3L484-3L484 77L350 77L350 141M484 141L484 305L413 141L484 141Z"  horiz-adv-x="603" vert-adv-y="1000"  />

      
      <glyph glyph-name="unibf" unicode="&#xbf;" d="M234 545Q240 527 240 502Q240 464 231 436Q222 408 209 384.50Q196 361 180 339.50Q164 318 151 293Q138 268 129 236Q120 204 120 161Q120 123 134.50 107.50Q149 92 175 92Q201 92 215.50 107.50Q230 123 230 161L230 237L334 237L334 168Q334 83 293.50 37.50Q253-8 172-8Q91-8 50.50 37.50Q10 83 10 168Q10 213 19.50 247Q29 281 43.50 308Q58 335 75 357.50Q92 380 106.50 402Q121 424 130.50 449Q140 474 140 506Q140 528 136 545L234 545M133 594L133 700L239 700L239 594L133 594Z"  horiz-adv-x="345" vert-adv-y="1000"  />

      
      <glyph glyph-name="unic0" unicode="&#xc0;" d="M397 0L286 0L267 127L132 127L113 0L12 0L124 700L285 700L397 0M146 222L252 222L199 576L146 222M188 851L260 734L177 734L69 851L188 851Z"  horiz-adv-x="407" vert-adv-y="1000"  />

      
      <glyph glyph-name="unic1" unicode="&#xc1;" d="M395 0L284 0L265 127L130 127L111 0L10 0L122 700L283 700L395 0M144 222L250 222L197 576L144 222M335 851L227 734L149 734L221 851L335 851Z"  horiz-adv-x="407" vert-adv-y="1000"  />

      
      <glyph glyph-name="unic2" unicode="&#xc2;" d="M397 0L286 0L267 127L132 127L113 0L12 0L124 700L285 700L397 0M146 222L252 222L199 576L146 222M59 734L152 851L257 851L350 734L251 734L204 792L158 734L59 734Z"  horiz-adv-x="409" vert-adv-y="1000"  />

      
      <glyph glyph-name="unic3" unicode="&#xc3;" d="M398 0L287 0L268 127L133 127L114 0L13 0L125 700L286 700L398 0M147 222L253 222L200 576L147 222M354 805Q329 761 307.50 747.50Q286 734 259 734Q242 734 228 738Q214 742 202 747.50Q190 753 179 757Q168 761 156 761Q142 761 132 754.50Q122 748 112 728L56 770Q81 814 102.50 827.50Q124 841 151 841Q168 841 182 837Q196 833 208 827.50Q220 822 231 818Q242 814 254 814Q268 814 278 820.50Q288 827 298 847L354 805Z"  horiz-adv-x="411" vert-adv-y="1000"  />

      
      <glyph glyph-name="unic4" unicode="&#xc4;" d="M398 0L287 0L268 127L133 127L114 0L13 0L125 700L286 700L398 0M147 222L253 222L200 576L147 222M176 836L176 734L74 734L74 836L176 836M336 836L336 734L234 734L234 836L336 836Z"  horiz-adv-x="411" vert-adv-y="1000"  />

      
      <glyph glyph-name="unic5" unicode="&#xc5;" d="M397 0L286 0L267 127L132 127L113 0L12 0L124 700L285 700L397 0M146 222L252 222L199 576L146 222M120 814Q120 849 144.50 873.50Q169 898 204 898Q239 898 263.50 873.50Q288 849 288 814Q288 779 263.50 754.50Q239 730 204 730Q169 730 144.50 754.50Q120 779 120 814M172 814Q172 800 181 791Q190 782 204 782Q218 782 227 791Q236 800 236 814Q236 828 227 837Q218 846 204 846Q190 846 181 837Q172 828 172 814Z"  horiz-adv-x="409" vert-adv-y="1000"  />

      
      <glyph glyph-name="unic6" unicode="&#xc6;" d="M261 127L150 127L118 0L13 0L200 700L561 700L561 600L371 600L371 405L522 405L522 305L371 305L371 100L561 100L561 0L261 0L261 127M261 222L261 559L175 222L261 222Z"  horiz-adv-x="584" vert-adv-y="1000"  />

      
      <glyph glyph-name="unic7" unicode="&#xc7;" d="M91-99L155-99L155-109Q155-120 161.50-123.50Q168-127 176-127Q202-127 202-101Q202-73 166-73L155-73L155-6Q86 1 52 45.50Q18 90 18 168L18 532Q18 617 59.50 662.50Q101 708 182 708Q263 708 304.50 662.50Q346 617 346 532L346 464L242 464L242 539Q242 577 226.50 592.50Q211 608 185 608Q159 608 143.50 592.50Q128 577 128 539L128 161Q128 123 143.50 108Q159 93 185 93Q211 93 226.50 108Q242 123 242 161L242 261L346 261L346 168Q346 90 310.50 44.50Q275-1 205-7L205-39Q234-39 251-54.50Q268-70 268-96Q268-141 241-159.50Q214-178 177-178Q143-178 117-161Q91-144 91-109L91-99Z"  horiz-adv-x="362" vert-adv-y="1000"  />

      
      <glyph glyph-name="unic8" unicode="&#xc8;" d="M132 405L283 405L283 305L132 305L132 100L322 100L322 0L22 0L22 700L322 700L322 600L132 600L132 405M154 851L226 734L143 734L35 851L154 851Z"  horiz-adv-x="330" vert-adv-y="1000"  />

      
      <glyph glyph-name="unic9" unicode="&#xc9;" d="M129 405L280 405L280 305L129 305L129 100L319 100L319 0L19 0L19 700L319 700L319 600L129 600L129 405M301 851L193 734L115 734L187 851L301 851Z"  horiz-adv-x="331" vert-adv-y="1000"  />

      
      <glyph glyph-name="unica" unicode="&#xca;" d="M132 405L283 405L283 305L132 305L132 100L322 100L322 0L22 0L22 700L322 700L322 600L132 600L132 405M25 734L118 851L223 851L316 734L217 734L170 792L124 734L25 734Z"  horiz-adv-x="335" vert-adv-y="1000"  />

      
      <glyph glyph-name="unicb" unicode="&#xcb;" d="M134 405L285 405L285 305L134 305L134 100L324 100L324 0L24 0L24 700L324 700L324 600L134 600L134 405M144 836L144 734L42 734L42 836L144 836M304 836L304 734L202 734L202 836L304 836Z"  horiz-adv-x="338" vert-adv-y="1000"  />

      
      <glyph glyph-name="unicc" unicode="&#xcc;" d="M82 700L192 700L192 0L82 0L82 700M121 851L193 734L110 734L2 851L121 851Z"  horiz-adv-x="216" vert-adv-y="1000"  />

      
      <glyph glyph-name="unicd" unicode="&#xcd;" d="M22 700L132 700L132 0L22 0L22 700M210 851L102 734L24 734L96 851L210 851Z"  horiz-adv-x="212" vert-adv-y="1000"  />

      
      <glyph glyph-name="unice" unicode="&#xce;" d="M96 700L206 700L206 0L96 0L96 700M6 734L99 851L204 851L297 734L198 734L151 792L105 734L6 734Z"  horiz-adv-x="303" vert-adv-y="1000"  />

      
      <glyph glyph-name="unicf" unicode="&#xcf;" d="M84 700L194 700L194 0L84 0L84 700M110 836L110 734L8 734L8 836L110 836M270 836L270 734L168 734L168 836L270 836Z"  horiz-adv-x="278" vert-adv-y="1000"  />

      
      <glyph glyph-name="unid0" unicode="&#xd0;" d="M54 305L18 305L18 395L54 395L54 700L228 700Q311 700 351.50 656Q392 612 392 527L392 173Q392 88 351.50 44Q311 0 228 0L54 0L54 305M164 600L164 395L232 395L232 305L164 305L164 100L226 100Q252 100 267 115Q282 130 282 168L282 532Q282 570 267 585Q252 600 226 600L164 600Z"  horiz-adv-x="415" vert-adv-y="1000"  />

      
      <glyph glyph-name="unid1" unicode="&#xd1;" d="M121 507L121 0L22 0L22 700L160 700L273 281L273 700L371 700L371 0L258 0L121 507M345 805Q320 761 298.50 747.50Q277 734 250 734Q233 734 219 738Q205 742 193 747.50Q181 753 170 757Q159 761 147 761Q133 761 123 754.50Q113 748 103 728L47 770Q72 814 93.50 827.50Q115 841 142 841Q159 841 173 837Q187 833 199 827.50Q211 822 222 818Q233 814 245 814Q259 814 269 820.50Q279 827 289 847L345 805Z"  horiz-adv-x="394" vert-adv-y="1000"  />

      
      <glyph glyph-name="unid2" unicode="&#xd2;" d="M129 161Q129 123 144.50 107.50Q160 92 186 92Q212 92 227.50 107.50Q243 123 243 161L243 539Q243 577 227.50 592.50Q212 608 186 608Q160 608 144.50 592.50Q129 577 129 539L129 161M19 532Q19 617 62 662.50Q105 708 186 708Q267 708 310 662.50Q353 617 353 532L353 168Q353 83 310 37.50Q267-8 186-8Q105-8 62 37.50Q19 83 19 168L19 532M169 851L241 734L158 734L50 851L169 851Z"  horiz-adv-x="370" vert-adv-y="1000"  />

      
      <glyph glyph-name="unid3" unicode="&#xd3;" d="M126 161Q126 123 141.50 107.50Q157 92 183 92Q209 92 224.50 107.50Q240 123 240 161L240 539Q240 577 224.50 592.50Q209 608 183 608Q157 608 141.50 592.50Q126 577 126 539L126 161M16 532Q16 617 59 662.50Q102 708 183 708Q264 708 307 662.50Q350 617 350 532L350 168Q350 83 307 37.50Q264-8 183-8Q102-8 59 37.50Q16 83 16 168L16 532M316 851L208 734L130 734L202 851L316 851Z"  horiz-adv-x="369" vert-adv-y="1000"  />

      
      <glyph glyph-name="unid4" unicode="&#xd4;" d="M129 161Q129 123 144.50 107.50Q160 92 186 92Q212 92 227.50 107.50Q243 123 243 161L243 539Q243 577 227.50 592.50Q212 608 186 608Q160 608 144.50 592.50Q129 577 129 539L129 161M19 532Q19 617 62 662.50Q105 708 186 708Q267 708 310 662.50Q353 617 353 532L353 168Q353 83 310 37.50Q267-8 186-8Q105-8 62 37.50Q19 83 19 168L19 532M40 734L133 851L238 851L331 734L232 734L185 792L139 734L40 734Z"  horiz-adv-x="373" vert-adv-y="1000"  />

      
      <glyph glyph-name="unid5" unicode="&#xd5;" d="M130 161Q130 123 145.50 107.50Q161 92 187 92Q213 92 228.50 107.50Q244 123 244 161L244 539Q244 577 228.50 592.50Q213 608 187 608Q161 608 145.50 592.50Q130 577 130 539L130 161M20 532Q20 617 63 662.50Q106 708 187 708Q268 708 311 662.50Q354 617 354 532L354 168Q354 83 311 37.50Q268-8 187-8Q106-8 63 37.50Q20 83 20 168L20 532M336 805Q311 761 289.50 747.50Q268 734 241 734Q224 734 210 738Q196 742 184 747.50Q172 753 161 757Q150 761 138 761Q124 761 114 754.50Q104 748 94 728L38 770Q63 814 84.50 827.50Q106 841 133 841Q150 841 164 837Q178 833 190 827.50Q202 822 213 818Q224 814 236 814Q250 814 260 820.50Q270 827 280 847L336 805Z"  horiz-adv-x="375" vert-adv-y="1000"  />

      
      <glyph glyph-name="unid6" unicode="&#xd6;" d="M131 161Q131 123 146.50 107.50Q162 92 188 92Q214 92 229.50 107.50Q245 123 245 161L245 539Q245 577 229.50 592.50Q214 608 188 608Q162 608 146.50 592.50Q131 577 131 539L131 161M21 532Q21 617 64 662.50Q107 708 188 708Q269 708 312 662.50Q355 617 355 532L355 168Q355 83 312 37.50Q269-8 188-8Q107-8 64 37.50Q21 83 21 168L21 532M159 836L159 734L57 734L57 836L159 836M319 836L319 734L217 734L217 836L319 836Z"  horiz-adv-x="376" vert-adv-y="1000"  />

      
      <glyph glyph-name="unid7" unicode="&#xd7;" d="M179 403L285 509L338 456L232 350L338 244L285 191L179 297L72 191L19 244L125 350L20 455L73 508L179 403Z"  horiz-adv-x="357" vert-adv-y="1000"  />

      
      <glyph glyph-name="unid8" unicode="&#xd8;" d="M56 46Q21 92 21 168L21 532Q21 617 64 662.50Q107 708 188 708Q248 708 288 682L308 737L345 724L319 653Q355 609 355 532L355 168Q355 83 312 37.50Q269-8 188-8Q126-8 88 17L68-37L31-24L56 46M131 251L243 560Q239 586 224.50 597Q210 608 188 608Q162 608 146.50 592.50Q131 577 131 539L131 251M188 92Q214 92 229.50 107.50Q245 123 245 161L245 449L132 140Q137 114 151 103Q165 92 188 92Z"  horiz-adv-x="377" vert-adv-y="1000"  />

      
      <glyph glyph-name="unid9" unicode="&#xd9;" d="M130 700L130 160Q130 122 145.50 107Q161 92 187 92Q213 92 228.50 107Q244 122 244 160L244 700L348 700L348 167Q348 82 306.50 36.50Q265-9 184-9Q103-9 61.50 36.50Q20 82 20 167L20 700L130 700M168 851L240 734L157 734L49 851L168 851Z"  horiz-adv-x="366" vert-adv-y="1000"  />

      
      <glyph glyph-name="unida" unicode="&#xda;" d="M127 700L127 160Q127 122 142.50 107Q158 92 184 92Q210 92 225.50 107Q241 122 241 160L241 700L345 700L345 167Q345 82 303.50 36.50Q262-9 181-9Q100-9 58.50 36.50Q17 82 17 167L17 700L127 700M315 851L207 734L129 734L201 851L315 851Z"  horiz-adv-x="365" vert-adv-y="1000"  />

      
      <glyph glyph-name="unidb" unicode="&#xdb;" d="M131 700L131 160Q131 122 146.50 107Q162 92 188 92Q214 92 229.50 107Q245 122 245 160L245 700L349 700L349 167Q349 82 307.50 36.50Q266-9 185-9Q104-9 62.50 36.50Q21 82 21 167L21 700L131 700M41 734L134 851L239 851L332 734L233 734L186 792L140 734L41 734Z"  horiz-adv-x="370" vert-adv-y="1000"  />

      
      <glyph glyph-name="unidc" unicode="&#xdc;" d="M132 700L132 160Q132 122 147.50 107Q163 92 189 92Q215 92 230.50 107Q246 122 246 160L246 700L350 700L350 167Q350 82 308.50 36.50Q267-9 186-9Q105-9 63.50 36.50Q22 82 22 167L22 700L132 700M159 836L159 734L57 734L57 836L159 836M319 836L319 734L217 734L217 836L319 836Z"  horiz-adv-x="372" vert-adv-y="1000"  />

      
      <glyph glyph-name="unidd" unicode="&#xdd;" d="M145 232L6 700L121 700L205 381L289 700L394 700L255 232L255 0L145 0L145 232M337 851L229 734L151 734L223 851L337 851Z"  horiz-adv-x="401" vert-adv-y="1000"  />

      
      <glyph glyph-name="unide" unicode="&#xde;" d="M25 700L135 700L135 620L187 620Q270 620 310.50 576Q351 532 351 447L351 356Q351 271 310.50 227Q270 183 187 183L135 183L135 0L25 0L25 700M135 520L135 283L187 283Q213 283 227 297Q241 311 241 349L241 454Q241 492 227 506Q213 520 187 520L135 520Z"  horiz-adv-x="357" vert-adv-y="1000"  />

      
      <glyph glyph-name="unidf" unicode="&#xdf;" d="M25 532Q25 617 65.50 662.50Q106 708 187 708Q268 708 308.50 662.50Q349 617 349 532L349 505L245 505L245 539Q245 577 230.50 592.50Q216 608 190 608Q164 608 149.50 592.50Q135 577 135 539Q135 503 151 475.50Q167 448 191 423.50Q215 399 242.50 374.50Q270 350 294 321Q318 292 334 255Q350 218 350 168Q350 83 308.50 37.50Q267-8 186-8Q105-8 63.50 37.50Q22 83 22 168L22 216L126 216L126 161Q126 123 141.50 108Q157 93 183 93Q209 93 224.50 108Q240 123 240 161Q240 197 224 224.50Q208 252 184 276.50Q160 301 132.50 325.50Q105 350 81 379Q57 408 41 445Q25 482 25 532M399 532Q399 617 439.50 662.50Q480 708 561 708Q642 708 682.50 662.50Q723 617 723 532L723 505L619 505L619 539Q619 577 604.50 592.50Q590 608 564 608Q538 608 523.50 592.50Q509 577 509 539Q509 503 525 475.50Q541 448 565 423.50Q589 399 616.50 374.50Q644 350 668 321Q692 292 708 255Q724 218 724 168Q724 83 682.50 37.50Q641-8 560-8Q479-8 437.50 37.50Q396 83 396 168L396 216L500 216L500 161Q500 123 515.50 108Q531 93 557 93Q583 93 598.50 108Q614 123 614 161Q614 197 598 224.50Q582 252 558 276.50Q534 301 506.50 325.50Q479 350 455 379Q431 408 415 445Q399 482 399 532Z"  horiz-adv-x="746" vert-adv-y="1000"  />

      
      <glyph glyph-name="unie0" unicode="&#xe0;" d="M397 0L286 0L267 127L132 127L113 0L12 0L124 700L285 700L397 0M146 222L252 222L199 576L146 222M188 851L260 734L177 734L69 851L188 851Z"  horiz-adv-x="407" vert-adv-y="1000"  />

      
      <glyph glyph-name="unie1" unicode="&#xe1;" d="M395 0L284 0L265 127L130 127L111 0L10 0L122 700L283 700L395 0M144 222L250 222L197 576L144 222M335 851L227 734L149 734L221 851L335 851Z"  horiz-adv-x="407" vert-adv-y="1000"  />

      
      <glyph glyph-name="unie2" unicode="&#xe2;" d="M397 0L286 0L267 127L132 127L113 0L12 0L124 700L285 700L397 0M146 222L252 222L199 576L146 222M59 734L152 851L257 851L350 734L251 734L204 792L158 734L59 734Z"  horiz-adv-x="409" vert-adv-y="1000"  />

      
      <glyph glyph-name="unie3" unicode="&#xe3;" d="M398 0L287 0L268 127L133 127L114 0L13 0L125 700L286 700L398 0M147 222L253 222L200 576L147 222M354 805Q329 761 307.50 747.50Q286 734 259 734Q242 734 228 738Q214 742 202 747.50Q190 753 179 757Q168 761 156 761Q142 761 132 754.50Q122 748 112 728L56 770Q81 814 102.50 827.50Q124 841 151 841Q168 841 182 837Q196 833 208 827.50Q220 822 231 818Q242 814 254 814Q268 814 278 820.50Q288 827 298 847L354 805Z"  horiz-adv-x="411" vert-adv-y="1000"  />

      
      <glyph glyph-name="unie4" unicode="&#xe4;" d="M398 0L287 0L268 127L133 127L114 0L13 0L125 700L286 700L398 0M147 222L253 222L200 576L147 222M176 836L176 734L74 734L74 836L176 836M336 836L336 734L234 734L234 836L336 836Z"  horiz-adv-x="411" vert-adv-y="1000"  />

      
      <glyph glyph-name="unie5" unicode="&#xe5;" d="M397 0L286 0L267 127L132 127L113 0L12 0L124 700L285 700L397 0M146 222L252 222L199 576L146 222M120 814Q120 849 144.50 873.50Q169 898 204 898Q239 898 263.50 873.50Q288 849 288 814Q288 779 263.50 754.50Q239 730 204 730Q169 730 144.50 754.50Q120 779 120 814M172 814Q172 800 181 791Q190 782 204 782Q218 782 227 791Q236 800 236 814Q236 828 227 837Q218 846 204 846Q190 846 181 837Q172 828 172 814Z"  horiz-adv-x="409" vert-adv-y="1000"  />

      
      <glyph glyph-name="unie6" unicode="&#xe6;" d="M371 405L522 405L522 305L371 305L371 100L561 100L561 0L261 0L261 127L150 127L118 0L13 0L200 700L561 700L561 600L371 600L371 405M261 222L261 559L175 222L261 222Z"  horiz-adv-x="584" vert-adv-y="1000"  />

      
      <glyph glyph-name="unie7" unicode="&#xe7;" d="M91-99L155-99L155-109Q155-120 161.50-123.50Q168-127 176-127Q202-127 202-101Q202-73 166-73L155-73L155-6Q86 1 52 45.50Q18 90 18 168L18 532Q18 617 59.50 662.50Q101 708 182 708Q263 708 304.50 662.50Q346 617 346 532L346 464L242 464L242 539Q242 577 226.50 592.50Q211 608 185 608Q159 608 143.50 592.50Q128 577 128 539L128 161Q128 123 143.50 108Q159 93 185 93Q211 93 226.50 108Q242 123 242 161L242 261L346 261L346 168Q346 90 310.50 44.50Q275-1 205-7L205-39Q234-39 251-54.50Q268-70 268-96Q268-141 241-159.50Q214-178 177-178Q143-178 117-161Q91-144 91-109L91-99Z"  horiz-adv-x="362" vert-adv-y="1000"  />

      
      <glyph glyph-name="unie8" unicode="&#xe8;" d="M132 405L283 405L283 305L132 305L132 100L322 100L322 0L22 0L22 700L322 700L322 600L132 600L132 405M154 851L226 734L143 734L35 851L154 851Z"  horiz-adv-x="330" vert-adv-y="1000"  />

      
      <glyph glyph-name="unie9" unicode="&#xe9;" d="M129 405L280 405L280 305L129 305L129 100L319 100L319 0L19 0L19 700L319 700L319 600L129 600L129 405M301 851L193 734L115 734L187 851L301 851Z"  horiz-adv-x="331" vert-adv-y="1000"  />

      
      <glyph glyph-name="uniea" unicode="&#xea;" d="M132 405L283 405L283 305L132 305L132 100L322 100L322 0L22 0L22 700L322 700L322 600L132 600L132 405M25 734L118 851L223 851L316 734L217 734L170 792L124 734L25 734Z"  horiz-adv-x="335" vert-adv-y="1000"  />

      
      <glyph glyph-name="unieb" unicode="&#xeb;" d="M134 405L285 405L285 305L134 305L134 100L324 100L324 0L24 0L24 700L324 700L324 600L134 600L134 405M144 836L144 734L42 734L42 836L144 836M304 836L304 734L202 734L202 836L304 836Z"  horiz-adv-x="338" vert-adv-y="1000"  />

      
      <glyph glyph-name="uniec" unicode="&#xec;" d="M82 700L192 700L192 0L82 0L82 700M121 851L193 734L110 734L2 851L121 851Z"  horiz-adv-x="216" vert-adv-y="1000"  />

      
      <glyph glyph-name="unied" unicode="&#xed;" d="M22 700L132 700L132 0L22 0L22 700M210 851L102 734L24 734L96 851L210 851Z"  horiz-adv-x="212" vert-adv-y="1000"  />

      
      <glyph glyph-name="uniee" unicode="&#xee;" d="M96 700L206 700L206 0L96 0L96 700M6 734L99 851L204 851L297 734L198 734L151 792L105 734L6 734Z"  horiz-adv-x="303" vert-adv-y="1000"  />

      
      <glyph glyph-name="unief" unicode="&#xef;" d="M84 700L194 700L194 0L84 0L84 700M110 836L110 734L8 734L8 836L110 836M270 836L270 734L168 734L168 836L270 836Z"  horiz-adv-x="278" vert-adv-y="1000"  />

      
      <glyph glyph-name="unif0" unicode="&#xf0;" d="M54 305L18 305L18 395L54 395L54 700L228 700Q311 700 351.50 656Q392 612 392 527L392 173Q392 88 351.50 44Q311 0 228 0L54 0L54 305M164 600L164 395L232 395L232 305L164 305L164 100L226 100Q252 100 267 115Q282 130 282 168L282 532Q282 570 267 585Q252 600 226 600L164 600Z"  horiz-adv-x="415" vert-adv-y="1000"  />

      
      <glyph glyph-name="unif1" unicode="&#xf1;" d="M121 507L121 0L22 0L22 700L160 700L273 281L273 700L371 700L371 0L258 0L121 507M345 805Q320 761 298.50 747.50Q277 734 250 734Q233 734 219 738Q205 742 193 747.50Q181 753 170 757Q159 761 147 761Q133 761 123 754.50Q113 748 103 728L47 770Q72 814 93.50 827.50Q115 841 142 841Q159 841 173 837Q187 833 199 827.50Q211 822 222 818Q233 814 245 814Q259 814 269 820.50Q279 827 289 847L345 805Z"  horiz-adv-x="394" vert-adv-y="1000"  />

      
      <glyph glyph-name="unif2" unicode="&#xf2;" d="M129 161Q129 123 144.50 107.50Q160 92 186 92Q212 92 227.50 107.50Q243 123 243 161L243 539Q243 577 227.50 592.50Q212 608 186 608Q160 608 144.50 592.50Q129 577 129 539L129 161M19 532Q19 617 62 662.50Q105 708 186 708Q267 708 310 662.50Q353 617 353 532L353 168Q353 83 310 37.50Q267-8 186-8Q105-8 62 37.50Q19 83 19 168L19 532M169 851L241 734L158 734L50 851L169 851Z"  horiz-adv-x="370" vert-adv-y="1000"  />

      
      <glyph glyph-name="unif3" unicode="&#xf3;" d="M126 161Q126 123 141.50 107.50Q157 92 183 92Q209 92 224.50 107.50Q240 123 240 161L240 539Q240 577 224.50 592.50Q209 608 183 608Q157 608 141.50 592.50Q126 577 126 539L126 161M16 532Q16 617 59 662.50Q102 708 183 708Q264 708 307 662.50Q350 617 350 532L350 168Q350 83 307 37.50Q264-8 183-8Q102-8 59 37.50Q16 83 16 168L16 532M316 851L208 734L130 734L202 851L316 851Z"  horiz-adv-x="369" vert-adv-y="1000"  />

      
      <glyph glyph-name="unif4" unicode="&#xf4;" d="M129 161Q129 123 144.50 107.50Q160 92 186 92Q212 92 227.50 107.50Q243 123 243 161L243 539Q243 577 227.50 592.50Q212 608 186 608Q160 608 144.50 592.50Q129 577 129 539L129 161M19 532Q19 617 62 662.50Q105 708 186 708Q267 708 310 662.50Q353 617 353 532L353 168Q353 83 310 37.50Q267-8 186-8Q105-8 62 37.50Q19 83 19 168L19 532M40 734L133 851L238 851L331 734L232 734L185 792L139 734L40 734Z"  horiz-adv-x="373" vert-adv-y="1000"  />

      
      <glyph glyph-name="unif5" unicode="&#xf5;" d="M130 161Q130 123 145.50 107.50Q161 92 187 92Q213 92 228.50 107.50Q244 123 244 161L244 539Q244 577 228.50 592.50Q213 608 187 608Q161 608 145.50 592.50Q130 577 130 539L130 161M20 532Q20 617 63 662.50Q106 708 187 708Q268 708 311 662.50Q354 617 354 532L354 168Q354 83 311 37.50Q268-8 187-8Q106-8 63 37.50Q20 83 20 168L20 532M336 805Q311 761 289.50 747.50Q268 734 241 734Q224 734 210 738Q196 742 184 747.50Q172 753 161 757Q150 761 138 761Q124 761 114 754.50Q104 748 94 728L38 770Q63 814 84.50 827.50Q106 841 133 841Q150 841 164 837Q178 833 190 827.50Q202 822 213 818Q224 814 236 814Q250 814 260 820.50Q270 827 280 847L336 805Z"  horiz-adv-x="375" vert-adv-y="1000"  />

      
      <glyph glyph-name="unif6" unicode="&#xf6;" d="M131 161Q131 123 146.50 107.50Q162 92 188 92Q214 92 229.50 107.50Q245 123 245 161L245 539Q245 577 229.50 592.50Q214 608 188 608Q162 608 146.50 592.50Q131 577 131 539L131 161M21 532Q21 617 64 662.50Q107 708 188 708Q269 708 312 662.50Q355 617 355 532L355 168Q355 83 312 37.50Q269-8 188-8Q107-8 64 37.50Q21 83 21 168L21 532M159 836L159 734L57 734L57 836L159 836M319 836L319 734L217 734L217 836L319 836Z"  horiz-adv-x="376" vert-adv-y="1000"  />

      
      <glyph glyph-name="unif7" unicode="&#xf7;" d="M232 250L232 144L126 144L126 250L232 250M232 555L232 449L126 449L126 555L232 555M352 389L352 311L6 311L6 389L352 389Z"  horiz-adv-x="358" vert-adv-y="1000"  />

      
      <glyph glyph-name="unif8" unicode="&#xf8;" d="M21 532Q21 617 64 662.50Q107 708 188 708Q248 708 288 682L308 737L345 724L319 653Q355 609 355 532L355 168Q355 83 312 37.50Q269-8 188-8Q126-8 88 17L68-37L31-24L56 46Q21 92 21 168L21 532M131 251L243 560Q239 586 224.50 597Q210 608 188 608Q162 608 146.50 592.50Q131 577 131 539L131 251M188 92Q214 92 229.50 107.50Q245 123 245 161L245 449L132 140Q137 114 151 103Q165 92 188 92Z"  horiz-adv-x="377" vert-adv-y="1000"  />

      
      <glyph glyph-name="unif9" unicode="&#xf9;" d="M130 700L130 160Q130 122 145.50 107Q161 92 187 92Q213 92 228.50 107Q244 122 244 160L244 700L348 700L348 167Q348 82 306.50 36.50Q265-9 184-9Q103-9 61.50 36.50Q20 82 20 167L20 700L130 700M168 851L240 734L157 734L49 851L168 851Z"  horiz-adv-x="366" vert-adv-y="1000"  />

      
      <glyph glyph-name="unifa" unicode="&#xfa;" d="M127 700L127 160Q127 122 142.50 107Q158 92 184 92Q210 92 225.50 107Q241 122 241 160L241 700L345 700L345 167Q345 82 303.50 36.50Q262-9 181-9Q100-9 58.50 36.50Q17 82 17 167L17 700L127 700M315 851L207 734L129 734L201 851L315 851Z"  horiz-adv-x="365" vert-adv-y="1000"  />

      
      <glyph glyph-name="unifb" unicode="&#xfb;" d="M131 700L131 160Q131 122 146.50 107Q162 92 188 92Q214 92 229.50 107Q245 122 245 160L245 700L349 700L349 167Q349 82 307.50 36.50Q266-9 185-9Q104-9 62.50 36.50Q21 82 21 167L21 700L131 700M41 734L134 851L239 851L332 734L233 734L186 792L140 734L41 734Z"  horiz-adv-x="370" vert-adv-y="1000"  />

      
      <glyph glyph-name="unifc" unicode="&#xfc;" d="M132 700L132 160Q132 122 147.50 107Q163 92 189 92Q215 92 230.50 107Q246 122 246 160L246 700L350 700L350 167Q350 82 308.50 36.50Q267-9 186-9Q105-9 63.50 36.50Q22 82 22 167L22 700L132 700M159 836L159 734L57 734L57 836L159 836M319 836L319 734L217 734L217 836L319 836Z"  horiz-adv-x="372" vert-adv-y="1000"  />

      
      <glyph glyph-name="unifd" unicode="&#xfd;" d="M145 232L6 700L121 700L205 381L289 700L394 700L255 232L255 0L145 0L145 232M337 851L229 734L151 734L223 851L337 851Z"  horiz-adv-x="401" vert-adv-y="1000"  />

      
      <glyph glyph-name="unife" unicode="&#xfe;" d="M25 700L135 700L135 620L187 620Q270 620 310.50 576Q351 532 351 447L351 356Q351 271 310.50 227Q270 183 187 183L135 183L135 0L25 0L25 700M135 520L135 283L187 283Q213 283 227 297Q241 311 241 349L241 454Q241 492 227 506Q213 520 187 520L135 520Z"  horiz-adv-x="357" vert-adv-y="1000"  />

      
      <glyph glyph-name="uniff" unicode="&#xff;" d="M147 232L8 700L123 700L207 381L291 700L396 700L257 232L257 0L147 0L147 232M177 836L177 734L75 734L75 836L177 836M337 836L337 734L235 734L235 836L337 836Z"  horiz-adv-x="404" vert-adv-y="1000"  />

      
      <glyph glyph-name="uni0410" unicode="&#x0410;" d="M399 0L288 0L269 127L134 127L115 0L14 0L126 700L287 700L399 0M148 222L254 222L201 576L148 222Z"  horiz-adv-x="413" vert-adv-y="1000"  />

      
      <glyph glyph-name="uni0412" unicode="&#x0412;" d="M191 700Q277 700 315.50 660Q354 620 354 539L354 514Q354 460 337 425Q320 390 283 373Q328 356 346.50 317.50Q365 279 365 223L365 166Q365 85 323 42.50Q281 0 198 0L25 0L25 700L191 700M135 315L135 100L198 100Q226 100 240.50 115Q255 130 255 169L255 230Q255 279 238.50 297Q222 315 184 315L135 315M135 600L135 415L178 415Q209 415 226.50 431Q244 447 244 489L244 528Q244 566 230.50 583Q217 600 188 600L135 600Z"  horiz-adv-x="390" vert-adv-y="1000"  />

      
      <glyph glyph-name="uni0421" unicode="&#x0421;" d="M350 261L350 168Q350 83 308.50 37.50Q267-8 186-8Q105-8 63.50 37.50Q22 83 22 168L22 532Q22 617 63.50 662.50Q105 708 186 708Q267 708 308.50 662.50Q350 617 350 532L350 464L246 464L246 539Q246 577 230.50 592.50Q215 608 189 608Q163 608 147.50 592.50Q132 577 132 539L132 161Q132 123 147.50 108Q163 93 189 93Q215 93 230.50 108Q246 123 246 161L246 261L350 261Z"  horiz-adv-x="370" vert-adv-y="1000"  />

      
      <glyph glyph-name="uni042F" unicode="&#x042F;" d="M63 193Q63 248 78.50 286.50Q94 325 136 342Q64 376 64 484L64 539Q64 620 102.50 660Q141 700 227 700L393 700L393 0L283 0L283 285L245 285Q207 285 190 265Q173 245 173 196L173 101Q173 56 146 28Q119 0 53 0L17 0L17 100L23 100Q42 100 52.50 108.50Q63 117 63 151L63 193M230 600Q201 600 187.50 583Q174 566 174 528L174 459Q174 417 191.50 401Q209 385 240 385L283 385L283 600L230 600Z"  horiz-adv-x="418" vert-adv-y="1000"  />

      
      <glyph glyph-name="uni0420" unicode="&#x0420;" d="M187 700Q270 700 310.50 656Q351 612 351 527L351 436Q351 351 310.50 307Q270 263 187 263L135 263L135 0L25 0L25 700L187 700M135 600L135 363L187 363Q213 363 227 377Q241 391 241 429L241 534Q241 572 227 586Q213 600 187 600L135 600Z"  horiz-adv-x="359" vert-adv-y="1000"  />

      
      <glyph glyph-name="uni041E" unicode="&#x041E;" d="M132 161Q132 123 147.50 107.50Q163 92 189 92Q215 92 230.50 107.50Q246 123 246 161L246 539Q246 577 230.50 592.50Q215 608 189 608Q163 608 147.50 592.50Q132 577 132 539L132 161M22 532Q22 617 65 662.50Q108 708 189 708Q270 708 313 662.50Q356 617 356 532L356 168Q356 83 313 37.50Q270-8 189-8Q108-8 65 37.50Q22 83 22 168L22 532Z"  horiz-adv-x="379" vert-adv-y="1000"  />

      
      <glyph glyph-name="uni041D" unicode="&#x041D;" d="M135 0L25 0L25 700L135 700L135 400L260 400L260 700L372 700L372 0L260 0L260 300L135 300L135 0Z"  horiz-adv-x="398" vert-adv-y="1000"  />

      
      <glyph glyph-name="uni041C" unicode="&#x041C;" d="M259 203L334 700L487 700L487 0L383 0L383 502L307 0L203 0L121 495L121 0L25 0L25 700L178 700L259 203Z"  horiz-adv-x="512" vert-adv-y="1000"  />

      
      <glyph glyph-name="uni0418" unicode="&#x0418;" d="M105 0L25 0L25 700L123 700L123 281L294 700L374 700L374 0L275 0L275 397L105 0Z"  horiz-adv-x="400" vert-adv-y="1000"  />

      
      <glyph glyph-name="uni041A" unicode="&#x041A;" d="M355 504Q355 396 282 362Q324 345 339.50 306.50Q355 268 355 213L355 151Q355 130 358 119.50Q361 109 367.50 104.50Q374 100 383.50 100Q393 100 406 100L412 100L412 0L366 0Q315-1 285 27.50Q255 56 255 101L255 216Q255 265 233 285Q211 305 173 305L135 305L135 0L25 0L25 700L135 700L135 405L178 405Q209 405 232 421Q255 437 255 479L255 599Q255 644 285 672.50Q315 701 366 700L411 700L411 600L406 600Q393 600 383.50 600Q374 600 367.50 595.50Q361 591 358 580.50Q355 570 355 549L355 504Z"  horiz-adv-x="436" vert-adv-y="1000"  />

      
      <glyph glyph-name="uni0413" unicode="&#x0413;" d="M135 0L25 0L25 700L316 700L316 600L135 600L135 0Z"  horiz-adv-x="341" vert-adv-y="1000"  />

      
      <glyph glyph-name="uni0415" unicode="&#x0415;" d="M135 405L286 405L286 305L135 305L135 100L325 100L325 0L25 0L25 700L325 700L325 600L135 600L135 405Z"  horiz-adv-x="350" vert-adv-y="1000"  />

      
      <glyph glyph-name="uni0416" unicode="&#x0416;" d="M182 494Q182 445 203.50 425Q225 405 263 405L263 700L373 700L373 405Q411 405 432.50 425Q454 445 454 494L454 599Q453 644 483.50 672.50Q514 701 565 700L612 700L612 600L605 600Q592 600 582.50 600Q573 600 566.50 595.50Q560 591 557 580.50Q554 570 554 549L554 504Q554 396 482 362Q524 345 539.50 306.50Q555 268 555 213L555 151Q555 130 558 119.50Q561 109 567.50 104.50Q574 100 583.50 100Q593 100 606 100L612 100L612 0L566 0Q515-1 485 27.50Q455 56 455 101L455 216Q455 265 433 285Q411 305 373 305L373 0L263 0L263 305Q225 305 203 285Q181 265 181 216L181 101Q181 56 151 27.50Q121-1 70 0L24 0L24 100L30 100Q43 100 52.50 100Q62 100 68.50 104.50Q75 109 78 119.50Q81 130 81 151L81 213Q81 268 96.50 306.50Q112 345 154 362Q82 396 82 504L82 549Q82 570 79 580.50Q76 591 69.50 595.50Q63 600 53.50 600Q44 600 31 600L24 600L24 700L71 700Q122 701 152.50 672.50Q183 644 182 599L182 494Z"  horiz-adv-x="636" vert-adv-y="1000"  />

      
      <glyph glyph-name="uni041F" unicode="&#x041F;" d="M135 0L25 0L25 700L372 700L372 0L260 0L260 600L135 600L135 0Z"  horiz-adv-x="398" vert-adv-y="1000"  />

      
      <glyph glyph-name="uni0422" unicode="&#x0422;" d="M11 700L351 700L351 600L236 600L236 0L126 0L126 600L11 600L11 700Z"  horiz-adv-x="362" vert-adv-y="1000"  />

      
      <glyph glyph-name="uni0425" unicode="&#x0425;" d="M412 700L297 360L420 0L304 0L214 277L123 0L20 0L143 360L28 700L142 700L225 442L310 700L412 700Z"  horiz-adv-x="441" vert-adv-y="1000"  />

      
      <glyph glyph-name="uni0426" unicode="&#x0426;" d="M414 100L414-80L322-80Q322-56 321.50-40.50Q321-25 319.50-16Q318-7 313.50-3.50Q309 0 302 0L21 0L21 700L131 700L131 100L256 100L256 700L368 700L368 100L414 100Z"  horiz-adv-x="435" vert-adv-y="1000"  />

      
      <glyph glyph-name="uni042C" unicode="&#x042C;" d="M135 415L201 415Q284 415 324.50 371Q365 327 365 242L365 173Q365 88 324.50 44Q284 0 201 0L25 0L25 700L135 700L135 415M201 100Q227 100 241 114.50Q255 129 255 166L255 249Q255 286 241 300.50Q227 315 201 315L135 315L135 100L201 100Z"  horiz-adv-x="372" vert-adv-y="1000"  />

      
      <glyph glyph-name="uni042D" unicode="&#x042D;" d="M238 539Q238 577 222.50 592.50Q207 608 181 608Q155 608 139.50 592.50Q124 577 124 539L124 464L20 464L20 532Q20 617 61.50 662.50Q103 708 184 708Q265 708 306.50 662.50Q348 617 348 532L348 168Q348 83 306.50 37.50Q265-8 184-8Q103-8 61.50 37.50Q20 83 20 168L20 261L124 261L124 161Q124 123 139.50 108Q155 93 181 93Q207 93 222.50 108Q238 123 238 161L238 305L147 305L147 405L238 405L238 539Z"  horiz-adv-x="371" vert-adv-y="1000"  />

      
      <glyph glyph-name="uni0411" unicode="&#x0411;" d="M135 415L201 415Q284 415 324.50 371Q365 327 365 242L365 173Q365 88 324.50 44Q284 0 201 0L25 0L25 700L316 700L316 600L135 600L135 415M201 100Q227 100 241 114.50Q255 129 255 166L255 249Q255 286 241 300.50Q227 315 201 315L135 315L135 100L201 100Z"  horiz-adv-x="390" vert-adv-y="1000"  />

      
      <glyph glyph-name="uni0401" unicode="&#x0401;" d="M134 405L285 405L285 305L134 305L134 100L324 100L324 0L24 0L24 700L324 700L324 600L134 600L134 405M144 836L144 734L42 734L42 836L144 836M304 836L304 734L202 734L202 836L304 836Z"  horiz-adv-x="348" vert-adv-y="1000"  />

      
      <glyph glyph-name="uni0451" unicode="&#x0451;" d="M134 405L285 405L285 305L134 305L134 100L324 100L324 0L24 0L24 700L324 700L324 600L134 600L134 405M144 836L144 734L42 734L42 836L144 836M304 836L304 734L202 734L202 836L304 836Z"  horiz-adv-x="348" vert-adv-y="1000"  />

      
      <glyph glyph-name="uni042E" unicode="&#x042E;" d="M135 0L25 0L25 700L135 700L135 400L201 400L201 532Q201 617 244 662.50Q287 708 368 708Q449 708 492 662.50Q535 617 535 532L535 168Q535 83 492 37.50Q449-8 368-8Q287-8 244 37.50Q201 83 201 168L201 300L135 300L135 0M311 161Q311 123 326.50 107.50Q342 92 368 92Q394 92 409.50 107.50Q425 123 425 161L425 539Q425 577 409.50 592.50Q394 608 368 608Q342 608 326.50 592.50Q311 577 311 539L311 161Z"  horiz-adv-x="558" vert-adv-y="1000"  />

      
      <glyph glyph-name="uni0407" unicode="&#x0407;" d="M84 700L194 700L194 0L84 0L84 700M110 836L110 734L8 734L8 836L110 836M270 836L270 734L168 734L168 836L270 836Z"  horiz-adv-x="278" vert-adv-y="1000"  />

      
      <glyph glyph-name="uni0457" unicode="&#x0457;" d="M84 700L194 700L194 0L84 0L84 700M110 836L110 734L8 734L8 836L110 836M270 836L270 734L168 734L168 836L270 836Z"  horiz-adv-x="278" vert-adv-y="1000"  />

      
      <glyph glyph-name="uni0455" unicode="&#x0455;" d="M22 532Q22 617 62.50 662.50Q103 708 184 708Q265 708 305.50 662.50Q346 617 346 532L346 505L242 505L242 539Q242 577 227.50 592.50Q213 608 187 608Q161 608 146.50 592.50Q132 577 132 539Q132 503 148 475.50Q164 448 188 423.50Q212 399 239.50 374.50Q267 350 291 321Q315 292 331 255Q347 218 347 168Q347 83 305.50 37.50Q264-8 183-8Q102-8 60.50 37.50Q19 83 19 168L19 216L123 216L123 161Q123 123 138.50 108Q154 93 180 93Q206 93 221.50 108Q237 123 237 161Q237 197 221 224.50Q205 252 181 276.50Q157 301 129.50 325.50Q102 350 78 379Q54 408 38 445Q22 482 22 532Z"  horiz-adv-x="366" vert-adv-y="1000"  />

      
      <glyph glyph-name="uni0405" unicode="&#x0405;" d="M22 532Q22 617 62.50 662.50Q103 708 184 708Q265 708 305.50 662.50Q346 617 346 532L346 505L242 505L242 539Q242 577 227.50 592.50Q213 608 187 608Q161 608 146.50 592.50Q132 577 132 539Q132 503 148 475.50Q164 448 188 423.50Q212 399 239.50 374.50Q267 350 291 321Q315 292 331 255Q347 218 347 168Q347 83 305.50 37.50Q264-8 183-8Q102-8 60.50 37.50Q19 83 19 168L19 216L123 216L123 161Q123 123 138.50 108Q154 93 180 93Q206 93 221.50 108Q237 123 237 161Q237 197 221 224.50Q205 252 181 276.50Q157 301 129.50 325.50Q102 350 78 379Q54 408 38 445Q22 482 22 532Z"  horiz-adv-x="366" vert-adv-y="1000"  />

      
      <glyph glyph-name="uni0408" unicode="&#x0408;" d="M8 100Q17 99 27 99Q37 99 46 99Q72 99 90.50 112Q109 125 109 166L109 700L219 700L219 174Q219 121 206 87Q193 53 171 33.50Q149 14 120.50 6Q92-2 61-2Q46-2 34-2Q22-2 8 0L8 100Z"  horiz-adv-x="243" vert-adv-y="1000"  />

      
      <glyph glyph-name="uni0458" unicode="&#x0458;" d="M8 100Q17 99 27 99Q37 99 46 99Q72 99 90.50 112Q109 125 109 166L109 700L219 700L219 174Q219 121 206 87Q193 53 171 33.50Q149 14 120.50 6Q92-2 61-2Q46-2 34-2Q22-2 8 0L8 100Z"  horiz-adv-x="243" vert-adv-y="1000"  />

      
      <glyph glyph-name="uni0406" unicode="&#x0406;" d="M25 700L135 700L135 0L25 0L25 700Z"  horiz-adv-x="162" vert-adv-y="1000"  />

      
      <glyph glyph-name="uni0456" unicode="&#x0456;" d="M25 700L135 700L135 0L25 0L25 700Z"  horiz-adv-x="162" vert-adv-y="1000"  />

      
      <glyph glyph-name="uni0403" unicode="&#x0403;" d="M128 0L18 0L18 700L309 700L309 600L128 600L128 0M313 851L205 734L127 734L199 851L313 851Z"  horiz-adv-x="315" vert-adv-y="1000"  />

      
      <glyph glyph-name="uni0453" unicode="&#x0453;" d="M128 0L18 0L18 700L309 700L309 600L128 600L128 0M313 851L205 734L127 734L199 851L313 851Z"  horiz-adv-x="315" vert-adv-y="1000"  />

      
      <glyph glyph-name="uni0419" unicode="&#x0419;" d="M102 0L22 0L22 700L120 700L120 281L291 700L371 700L371 0L272 0L272 397L102 0M198 802Q217 802 230 812Q243 822 244 848L324 848Q322 788 289.50 756Q257 724 198 724Q138 724 106 756Q74 788 70 848L151 848Q153 822 165.50 812Q178 802 198 802Z"  horiz-adv-x="393" vert-adv-y="1000"  />

      
      <glyph glyph-name="uni0417" unicode="&#x0417;" d="M238 528Q238 575 222.50 591.50Q207 608 181 608Q155 608 139.50 592.50Q124 577 124 539L124 464L20 464L20 532Q20 617 61.50 662.50Q103 708 184 708Q265 708 306.50 662.50Q348 617 348 532L348 514Q348 402 271 370Q313 352 330.50 314.50Q348 277 348 223L348 168Q348 83 306.50 37.50Q265-8 184-8Q103-8 61.50 37.50Q20 83 20 168L20 256L124 256L124 161Q124 123 139.50 107.50Q155 92 181 92Q207 92 222.50 108Q238 124 238 171L238 226Q238 275 221 295Q204 315 166 315L149 315L149 415L172 415Q203 415 220.50 431Q238 447 238 489L238 528Z"  horiz-adv-x="369" vert-adv-y="1000"  />

      
      <glyph glyph-name="uni0424" unicode="&#x0424;" d="M234 50L182 50Q99 50 58.50 94Q18 138 18 223L18 477Q18 562 58.50 606Q99 650 182 650L234 650L234 700L344 700L344 650L396 650Q479 650 519.50 606Q560 562 560 477L560 223Q560 138 519.50 94Q479 50 396 50L344 50L344 0L234 0L234 50M344 550L344 150L396 150Q422 150 436 164Q450 178 450 216L450 484Q450 522 436 536Q422 550 396 550L344 550M182 550Q156 550 142 536Q128 522 128 484L128 216Q128 178 142 164Q156 150 182 150L234 150L234 550L182 550Z"  horiz-adv-x="578" vert-adv-y="1000"  />

      
      <glyph glyph-name="uni0428" unicode="&#x0428;" d="M334 100L423 100L423 700L534 700L534 0L25 0L25 700L134 700L134 100L224 100L224 700L334 700L334 100Z"  horiz-adv-x="559" vert-adv-y="1000"  />

      
      <glyph glyph-name="uni0429" unicode="&#x0429;" d="M21 0L21 700L130 700L130 100L220 100L220 700L330 700L330 100L419 100L419 700L530 700L530 100L576 100L576-80L484-80Q484-56 483.50-40.50Q483-25 481.50-16Q480-7 475.50-3.50Q471 0 464 0L21 0Z"  horiz-adv-x="598" vert-adv-y="1000"  />

      
      <glyph glyph-name="uni042B" unicode="&#x042B;" d="M135 415L201 415Q284 415 324.50 371Q365 327 365 242L365 173Q365 88 324.50 44Q284 0 201 0L25 0L25 700L135 700L135 415M405 700L515 700L515 0L405 0L405 700M201 100Q227 100 241 114.50Q255 129 255 166L255 249Q255 286 241 300.50Q227 315 201 315L135 315L135 100L201 100Z"  horiz-adv-x="540" vert-adv-y="1000"  />

      
      <glyph glyph-name="uni042A" unicode="&#x042A;" d="M217 415L283 415Q366 415 406.50 371Q447 327 447 242L447 173Q447 88 406.50 44Q366 0 283 0L107 0L107 600L16 600L16 700L217 700L217 415M283 100Q309 100 323 114.50Q337 129 337 166L337 249Q337 286 323 300.50Q309 315 283 315L217 315L217 100L283 100Z"  horiz-adv-x="457" vert-adv-y="1000"  />

      
      <glyph glyph-name="uni0427" unicode="&#x0427;" d="M119 700L119 430Q119 392 134.50 377Q150 362 176 362Q201 362 216 375.50Q231 389 233 422L233 700L343 700L343 0L233 0L233 269Q219 264 204.50 262.50Q190 261 173 261Q92 261 50.50 306.50Q9 352 9 437L9 700L119 700Z"  horiz-adv-x="369" vert-adv-y="1000"  />

      
      <glyph glyph-name="uni0490" unicode="&#x0490;" d="M132 0L22 0L22 700L201 700L201 780L313 780L313 600L132 600L132 0Z"  horiz-adv-x="318" vert-adv-y="1000"  />

      
      <glyph glyph-name="uni0491" unicode="&#x0491;" d="M132 0L22 0L22 700L201 700L201 780L313 780L313 600L132 600L132 0Z"  horiz-adv-x="318" vert-adv-y="1000"  />

      
      <glyph glyph-name="uni041B" unicode="&#x041B;" d="M224 325Q224 241 216 179.50Q208 118 186 78Q164 38 125.50 19Q87 0 27 0L15 0L15 100L28 100Q58 100 76.50 116Q95 132 105 161.50Q115 191 118 233Q121 275 121 327L121 700L427 700L427 0L317 0L317 600L224 600L224 325Z"  horiz-adv-x="452" vert-adv-y="1000"  />

      
      <glyph glyph-name="uni0414" unicode="&#x0414;" d="M128 0Q120 0 116-3.50Q112-7 110.50-16Q109-25 108.50-40.50Q108-56 108-80L16-80L16 100L39 100Q88 117 110 172Q132 227 132 327L132 700L438 700L438 100L484 100L484-80L392-80Q392-56 391.50-40.50Q391-25 389.50-16Q388-7 383.50-3.50Q379 0 372 0L128 0M235 325Q235 287 229.50 250Q224 213 214 182Q204 151 191.50 129Q179 107 166 100L328 100L328 600L235 600L235 325Z"  horiz-adv-x="505" vert-adv-y="1000"  />

      
      <glyph glyph-name="uni0423" unicode="&#x0423;" d="M77 100Q86 99 91 99Q96 99 105 99Q118 99 131 102Q144 105 153.50 113Q163 121 167 135.50Q171 150 167 174L17 700L127 700L238 290L328 700L438 700L304 184Q286 127 269.50 91Q253 55 232 34.50Q211 14 184 6.50Q157-1 120-2Q105-2 98-2Q91-2 77 0L77 100Z"  horiz-adv-x="447" vert-adv-y="1000"  />

      
      <glyph glyph-name="uni040E" unicode="&#x040E;" d="M237 802Q256 802 269 812Q282 822 283 848L363 848Q361 788 328.50 756Q296 724 237 724Q177 724 145 756Q113 788 109 848L190 848Q192 822 204.50 812Q217 802 237 802M71 100Q80 99 85 99Q90 99 99 99Q112 99 125 102Q138 105 147.50 113Q157 121 161 135.50Q165 150 161 174L11 700L121 700L232 290L322 700L432 700L298 184Q280 127 263.50 91Q247 55 226 34.50Q205 14 178 6.50Q151-1 114-2Q99-2 92-2Q85-2 71 0L71 100Z"  horiz-adv-x="441" vert-adv-y="1000"  />

      
      <glyph glyph-name="uni2116" unicode="&#x2116;" d="M124 507L124 0L25 0L25 700L163 700L276 281L276 700L519 700L519 618L374 618L374 0L261 0L124 507M655 82L655 0L413 0L413 82L655 82M414 367Q414 441 445 481.50Q476 522 535 522Q594 522 625 481.50Q656 441 656 367L656 319Q656 244 625 204Q594 164 535 164Q476 164 445 204Q414 244 414 319L414 367M494 313Q494 280 504.50 266Q515 252 535 252Q555 252 565.50 266Q576 280 576 313L576 373Q576 406 565.50 419.50Q555 433 535 433Q515 433 504.50 419.50Q494 406 494 373L494 313Z"  horiz-adv-x="674" vert-adv-y="1000"  />

      
      <glyph glyph-name="unia4" unicode="&#xa4;" d="M93 384L93 383Q83 413 83 458L83 506Q83 546 94 581L93 580L18 655L93 730L167 656Q185 661 204 661Q221 661 239 656L313 730L388 655L314 581Q325 546 325 506L325 458Q325 416 314 383L388 309L313 234L239 307Q224 303 204 303Q181 303 167 308L93 234L18 309L93 384M163 452Q163 419 173.50 405Q184 391 204 391Q224 391 234.50 405Q245 419 245 452L245 512Q245 545 234.50 558.50Q224 572 204 572Q184 572 173.50 558.50Q163 545 163 512L163 452Z"  horiz-adv-x="406" vert-adv-y="1000"  />

      
      <glyph glyph-name="unib5" unicode="&#xb5;" d="M481 16L371 16L371 109Q328 88 280.50 77.50Q233 67 195 67Q178 67 163.50 68.50Q149 70 135 75L135-194L25-194L25 506L135 506L135 228Q137 195 152 181.50Q167 168 192 168Q205 168 234.50 171.50Q264 175 294.50 183Q325 191 348 204Q371 217 371 236L371 506L481 506L481 16Z"  horiz-adv-x="492" vert-adv-y="1000"  />

      
      <glyph glyph-name="uni23" unicode="&#x23;" d="M219 200L154 200L133 0L43 0L64 200L15 200L23 278L72 278L91 461L41 461L49 539L99 539L116 700L206 700L189 539L254 539L271 700L361 700L344 539L395 539L387 461L336 461L317 278L368 278L360 200L309 200L288 0L198 0L219 200M162 278L227 278L246 461L181 461L162 278Z"  horiz-adv-x="409" vert-adv-y="1000"  />

      
      <glyph glyph-name="uni21" unicode="&#x21;" d="M38 155L24 408L24 700L134 700L134 408L120 155L38 155M132 106L132 0L26 0L26 106L132 106Z"  horiz-adv-x="159" vert-adv-y="1000"  />

      
      <glyph glyph-name="uni22" unicode="&#x22;" d="M24 700L130 700L114 494L39 494L24 700M163 700L269 700L253 494L178 494L163 700Z"  horiz-adv-x="292" vert-adv-y="1000"  />

      
      <glyph glyph-name="uni045E" unicode="&#x045E;" d="M237 802Q256 802 269 812Q282 822 283 848L363 848Q361 788 328.50 756Q296 724 237 724Q177 724 145 756Q113 788 109 848L190 848Q192 822 204.50 812Q217 802 237 802M71 100Q80 99 85 99Q90 99 99 99Q112 99 125 102Q138 105 147.50 113Q157 121 161 135.50Q165 150 161 174L11 700L121 700L232 290L322 700L432 700L298 184Q280 127 263.50 91Q247 55 226 34.50Q205 14 178 6.50Q151-1 114-2Q99-2 92-2Q85-2 71 0L71 100Z"  horiz-adv-x="441" vert-adv-y="1000"  />

      
      <glyph glyph-name="uni61" unicode="&#x61;" d="M400 0L289 0L270 127L135 127L116 0L15 0L127 700L288 700L400 0M149 222L255 222L202 576L149 222Z"  horiz-adv-x="415" vert-adv-y="1000"  />

      
      <glyph glyph-name="uni62" unicode="&#x62;" d="M192 700Q278 700 316.50 660Q355 620 355 539L355 514Q355 460 338 425Q321 390 284 373Q329 356 347.50 317.50Q366 279 366 223L366 166Q366 85 324 42.50Q282 0 199 0L26 0L26 700L192 700M136 315L136 100L199 100Q227 100 241.50 115Q256 130 256 169L256 230Q256 279 239.50 297Q223 315 185 315L136 315M136 600L136 415L179 415Q210 415 227.50 431Q245 447 245 489L245 528Q245 566 231.50 583Q218 600 189 600L136 600Z"  horiz-adv-x="387" vert-adv-y="1000"  />

      
      <glyph glyph-name="uni63" unicode="&#x63;" d="M351 261L351 168Q351 83 309.50 37.50Q268-8 187-8Q106-8 64.50 37.50Q23 83 23 168L23 532Q23 617 64.50 662.50Q106 708 187 708Q268 708 309.50 662.50Q351 617 351 532L351 464L247 464L247 539Q247 577 231.50 592.50Q216 608 190 608Q164 608 148.50 592.50Q133 577 133 539L133 161Q133 123 148.50 108Q164 93 190 93Q216 93 231.50 108Q247 123 247 161L247 261L351 261Z"  horiz-adv-x="372" vert-adv-y="1000"  />

      
      <glyph glyph-name="uni64" unicode="&#x64;" d="M26 700L200 700Q283 700 323.50 656Q364 612 364 527L364 173Q364 88 323.50 44Q283 0 200 0L26 0L26 700M136 600L136 100L198 100Q224 100 239 115Q254 130 254 168L254 532Q254 570 239 585Q224 600 198 600L136 600Z"  horiz-adv-x="388" vert-adv-y="1000"  />

      
      <glyph glyph-name="uni65" unicode="&#x65;" d="M136 405L287 405L287 305L136 305L136 100L326 100L326 0L26 0L26 700L326 700L326 600L136 600L136 405Z"  horiz-adv-x="348" vert-adv-y="1000"  />

      
      <glyph glyph-name="uni66" unicode="&#x66;" d="M136 389L278 389L278 289L136 289L136 0L26 0L26 700L317 700L317 600L136 600L136 389Z"  horiz-adv-x="322" vert-adv-y="1000"  />

      
      <glyph glyph-name="uni67" unicode="&#x67;" d="M197 390L351 390L351 168Q351 83 309.50 37.50Q268-8 187-8Q106-8 64.50 37.50Q23 83 23 168L23 532Q23 617 64.50 662.50Q106 708 187 708Q268 708 309.50 662.50Q351 617 351 532L351 464L247 464L247 539Q247 577 231.50 592.50Q216 608 190 608Q164 608 148.50 592.50Q133 577 133 539L133 161Q133 123 148.50 108Q164 93 190 93Q216 93 231.50 108Q247 123 247 161L247 290L197 290L197 390Z"  horiz-adv-x="374" vert-adv-y="1000"  />

      
      <glyph glyph-name="uni68" unicode="&#x68;" d="M136 0L26 0L26 700L136 700L136 400L261 400L261 700L373 700L373 0L261 0L261 300L136 300L136 0Z"  horiz-adv-x="400" vert-adv-y="1000"  />

      
      <glyph glyph-name="uni69" unicode="&#x69;" d="M26 700L136 700L136 0L26 0L26 700Z"  horiz-adv-x="164" vert-adv-y="1000"  />

      
      <glyph glyph-name="uni6a" unicode="&#x6a;" d="M8 100Q17 99 27 99Q37 99 46 99Q72 99 90.50 112Q109 125 109 166L109 700L219 700L219 174Q219 121 206 87Q193 53 171 33.50Q149 14 120.50 6Q92-2 61-2Q46-2 34-2Q22-2 8 0L8 100Z"  horiz-adv-x="244" vert-adv-y="1000"  />

      
      <glyph glyph-name="uni6b" unicode="&#x6b;" d="M170 279L136 215L136 0L26 0L26 700L136 700L136 395L282 700L390 700L237 388L390 0L277 0L170 279Z"  horiz-adv-x="411" vert-adv-y="1000"  />

      
      <glyph glyph-name="uni6c" unicode="&#x6c;" d="M26 700L136 700L136 100L317 100L317 0L26 0L26 700Z"  horiz-adv-x="322" vert-adv-y="1000"  />

      
      <glyph glyph-name="uni6d" unicode="&#x6d;" d="M260 203L335 700L488 700L488 0L384 0L384 502L308 0L204 0L122 495L122 0L26 0L26 700L179 700L260 203Z"  horiz-adv-x="514" vert-adv-y="1000"  />

      
      <glyph glyph-name="uni6e" unicode="&#x6e;" d="M124 507L124 0L25 0L25 700L163 700L276 281L276 700L374 700L374 0L261 0L124 507Z"  horiz-adv-x="400" vert-adv-y="1000"  />

      
      <glyph glyph-name="uni6f" unicode="&#x6f;" d="M132 161Q132 123 147.50 107.50Q163 92 189 92Q215 92 230.50 107.50Q246 123 246 161L246 539Q246 577 230.50 592.50Q215 608 189 608Q163 608 147.50 592.50Q132 577 132 539L132 161M22 532Q22 617 65 662.50Q108 708 189 708Q270 708 313 662.50Q356 617 356 532L356 168Q356 83 313 37.50Q270-8 189-8Q108-8 65 37.50Q22 83 22 168L22 532Z"  horiz-adv-x="379" vert-adv-y="1000"  />

      
      <glyph glyph-name="uni70" unicode="&#x70;" d="M187 700Q270 700 310.50 656Q351 612 351 527L351 436Q351 351 310.50 307Q270 263 187 263L135 263L135 0L25 0L25 700L187 700M135 600L135 363L187 363Q213 363 227 377Q241 391 241 429L241 534Q241 572 227 586Q213 600 187 600L135 600Z"  horiz-adv-x="359" vert-adv-y="1000"  />

      
      <glyph glyph-name="uni71" unicode="&#x71;" d="M21 532Q21 617 64 662.50Q107 708 188 708Q269 708 312 662.50Q355 617 355 532L355 168Q355 109 334 70Q338 60 344.50 57.50Q351 55 365 55L375 55L375-43L360-43Q323-43 299.50-30.50Q276-18 265 5Q248-1 229-4.50Q210-8 188-8Q107-8 64 37.50Q21 83 21 168L21 532M131 161Q131 123 146.50 107.50Q162 92 188 92Q214 92 229.50 107.50Q245 123 245 161L245 539Q245 577 229.50 592.50Q214 608 188 608Q162 608 146.50 592.50Q131 577 131 539L131 161Z"  horiz-adv-x="395" vert-adv-y="1000"  />

      
      <glyph glyph-name="uni72" unicode="&#x72;" d="M255 0Q253 7 251 13Q249 19 247.50 28Q246 37 245.50 51Q245 65 245 86L245 196Q245 245 228 265Q211 285 173 285L135 285L135 0L25 0L25 700L191 700Q277 700 315.50 660Q354 620 354 539L354 484Q354 376 282 342Q324 325 339.50 286.50Q355 248 355 193L355 85Q355 59 357 39.50Q359 20 367 0L255 0M135 600L135 385L178 385Q209 385 226.50 401Q244 417 244 459L244 528Q244 566 230.50 583Q217 600 188 600L135 600Z"  horiz-adv-x="387" vert-adv-y="1000"  />

      
      <glyph glyph-name="uni73" unicode="&#x73;" d="M22 532Q22 617 62.50 662.50Q103 708 184 708Q265 708 305.50 662.50Q346 617 346 532L346 505L242 505L242 539Q242 577 227.50 592.50Q213 608 187 608Q161 608 146.50 592.50Q132 577 132 539Q132 503 148 475.50Q164 448 188 423.50Q212 399 239.50 374.50Q267 350 291 321Q315 292 331 255Q347 218 347 168Q347 83 305.50 37.50Q264-8 183-8Q102-8 60.50 37.50Q19 83 19 168L19 216L123 216L123 161Q123 123 138.50 108Q154 93 180 93Q206 93 221.50 108Q237 123 237 161Q237 197 221 224.50Q205 252 181 276.50Q157 301 129.50 325.50Q102 350 78 379Q54 408 38 445Q22 482 22 532Z"  horiz-adv-x="366" vert-adv-y="1000"  />

      
      <glyph glyph-name="uni74" unicode="&#x74;" d="M11 700L351 700L351 600L236 600L236 0L126 0L126 600L11 600L11 700Z"  horiz-adv-x="362" vert-adv-y="1000"  />

      
      <glyph glyph-name="uni75" unicode="&#x75;" d="M134 700L134 160Q134 122 149.50 107Q165 92 191 92Q217 92 232.50 107Q248 122 248 160L248 700L352 700L352 167Q352 82 310.50 36.50Q269-9 188-9Q107-9 65.50 36.50Q24 82 24 167L24 700L134 700Z"  horiz-adv-x="376" vert-adv-y="1000"  />

      
      <glyph glyph-name="uni76" unicode="&#x76;" d="M209 129L293 700L394 700L286 0L122 0L14 700L125 700L209 129Z"  horiz-adv-x="408" vert-adv-y="1000"  />

      
      <glyph glyph-name="uni77" unicode="&#x77;" d="M288 373L248 0L97 0L19 700L126 700L185 148L238 700L344 700L399 144L456 700L552 700L474 0L328 0L288 373Z"  horiz-adv-x="571" vert-adv-y="1000"  />

      
      <glyph glyph-name="uni78" unicode="&#x78;" d="M412 700L297 360L420 0L304 0L214 277L123 0L20 0L143 360L28 700L142 700L225 442L310 700L412 700Z"  horiz-adv-x="441" vert-adv-y="1000"  />

      
      <glyph glyph-name="uni79" unicode="&#x79;" d="M149 232L10 700L125 700L209 381L293 700L398 700L259 232L259 0L149 0L149 232Z"  horiz-adv-x="408" vert-adv-y="1000"  />

      
      <glyph glyph-name="uni7a" unicode="&#x7a;" d="M343 700L343 602L134 100L343 100L343 0L21 0L21 98L230 600L31 600L31 700L343 700Z"  horiz-adv-x="366" vert-adv-y="1000"  />

      
      <glyph glyph-name="uni26" unicode="&#x26;" d="M23 223Q23 277 40.50 314.50Q58 352 99 370Q23 402 23 514L23 527Q23 612 63.50 656Q104 700 187 700L313 700L313 600L189 600Q163 600 148 585Q133 570 133 532L133 489Q133 447 150.50 431Q168 415 199 415L247 415L247 493L357 493L357 415L386 415L386 315L357 315L357 85Q357 59 359 39.50Q361 20 369 0L257 0Q253 11 251 21.50Q249 32 247 55Q218-8 145-8Q84-8 53.50 33Q23 74 23 152L23 223M133 161Q133 123 148.50 107.50Q164 92 190 92Q215 92 230 106Q245 120 247 153L247 315L205 315Q167 315 150 295Q133 275 133 226L133 161Z"  horiz-adv-x="403" vert-adv-y="1000"  />

      
      <glyph glyph-name="uni24" unicode="&#x24;" d="M19 522Q19 593 48 636.50Q77 680 135 693L135 745L225 745L225 693Q284 681 313.50 637.50Q343 594 343 522L343 500L239 500L239 529Q239 567 224.50 582.50Q210 598 184 598Q158 598 143.50 582.50Q129 567 129 529Q129 493 145 467Q161 441 185 418.50Q209 396 236.50 374.50Q264 353 288 326Q312 299 328 263.50Q344 228 344 178Q344 106 314 62Q284 18 225 6L225-45L135-45L135 6Q75 18 45.50 62Q16 106 16 178L16 226L120 226L120 171Q120 133 135.50 118Q151 103 177 103Q203 103 218.50 118Q234 133 234 171Q234 207 218 233Q202 259 178 281.50Q154 304 126.50 325.50Q99 347 75 374Q51 401 35 436.50Q19 472 19 522Z"  horiz-adv-x="360" vert-adv-y="1000"  />

      
      <glyph glyph-name="uni25" unicode="&#x25;" d="M89 358Q89 314 125 314Q142 314 151.50 324.50Q161 335 161 358L161 598Q161 621 151.50 631.50Q142 642 125 642Q89 642 89 598L89 358M19 593Q19 647 46 676Q73 705 125 705Q177 705 204 676Q231 647 231 593L231 363Q231 309 204 280Q177 251 125 251Q73 251 46 280Q19 309 19 363L19 593M401 700L466 700L190 0L125 0L401 700M436 99Q436 55 472 55Q489 55 498.50 65.50Q508 76 508 99L508 339Q508 362 498.50 372.50Q489 383 472 383Q436 383 436 339L436 99M366 334Q366 388 393 417Q420 446 472 446Q524 446 551 417Q578 388 578 334L578 104Q578 50 551 21Q524-8 472-8Q420-8 393 21Q366 50 366 104L366 334Z"  horiz-adv-x="597" vert-adv-y="1000"  />

      
      <glyph glyph-name="uni0430" unicode="&#x0430;" d="M399 0L288 0L269 127L134 127L115 0L14 0L126 700L287 700L399 0M148 222L254 222L201 576L148 222Z"  horiz-adv-x="413" vert-adv-y="1000"  />

      
      <glyph glyph-name="uni0431" unicode="&#x0431;" d="M135 415L201 415Q284 415 324.50 371Q365 327 365 242L365 173Q365 88 324.50 44Q284 0 201 0L25 0L25 700L316 700L316 600L135 600L135 415M201 100Q227 100 241 114.50Q255 129 255 166L255 249Q255 286 241 300.50Q227 315 201 315L135 315L135 100L201 100Z"  horiz-adv-x="390" vert-adv-y="1000"  />

      
      <glyph glyph-name="uni0432" unicode="&#x0432;" d="M191 700Q277 700 315.50 660Q354 620 354 539L354 514Q354 460 337 425Q320 390 283 373Q328 356 346.50 317.50Q365 279 365 223L365 166Q365 85 323 42.50Q281 0 198 0L25 0L25 700L191 700M135 315L135 100L198 100Q226 100 240.50 115Q255 130 255 169L255 230Q255 279 238.50 297Q222 315 184 315L135 315M135 600L135 415L178 415Q209 415 226.50 431Q244 447 244 489L244 528Q244 566 230.50 583Q217 600 188 600L135 600Z"  horiz-adv-x="390" vert-adv-y="1000"  />

      
      <glyph glyph-name="uni0433" unicode="&#x0433;" d="M135 0L25 0L25 700L316 700L316 600L135 600L135 0Z"  horiz-adv-x="341" vert-adv-y="1000"  />

      
      <glyph glyph-name="uni0434" unicode="&#x0434;" d="M128 0Q120 0 116-3.50Q112-7 110.50-16Q109-25 108.50-40.50Q108-56 108-80L16-80L16 100L39 100Q88 117 110 172Q132 227 132 327L132 700L438 700L438 100L484 100L484-80L392-80Q392-56 391.50-40.50Q391-25 389.50-16Q388-7 383.50-3.50Q379 0 372 0L128 0M235 325Q235 287 229.50 250Q224 213 214 182Q204 151 191.50 129Q179 107 166 100L328 100L328 600L235 600L235 325Z"  horiz-adv-x="505" vert-adv-y="1000"  />

      
      <glyph glyph-name="uni0435" unicode="&#x0435;" d="M135 405L286 405L286 305L135 305L135 100L325 100L325 0L25 0L25 700L325 700L325 600L135 600L135 405Z"  horiz-adv-x="350" vert-adv-y="1000"  />

      
      <glyph glyph-name="uni0436" unicode="&#x0436;" d="M182 494Q182 445 203.50 425Q225 405 263 405L263 700L373 700L373 405Q411 405 432.50 425Q454 445 454 494L454 599Q453 644 483.50 672.50Q514 701 565 700L612 700L612 600L605 600Q592 600 582.50 600Q573 600 566.50 595.50Q560 591 557 580.50Q554 570 554 549L554 504Q554 396 482 362Q524 345 539.50 306.50Q555 268 555 213L555 151Q555 130 558 119.50Q561 109 567.50 104.50Q574 100 583.50 100Q593 100 606 100L612 100L612 0L566 0Q515-1 485 27.50Q455 56 455 101L455 216Q455 265 433 285Q411 305 373 305L373 0L263 0L263 305Q225 305 203 285Q181 265 181 216L181 101Q181 56 151 27.50Q121-1 70 0L24 0L24 100L30 100Q43 100 52.50 100Q62 100 68.50 104.50Q75 109 78 119.50Q81 130 81 151L81 213Q81 268 96.50 306.50Q112 345 154 362Q82 396 82 504L82 549Q82 570 79 580.50Q76 591 69.50 595.50Q63 600 53.50 600Q44 600 31 600L24 600L24 700L71 700Q122 701 152.50 672.50Q183 644 182 599L182 494Z"  horiz-adv-x="636" vert-adv-y="1000"  />

      
      <glyph glyph-name="uni0437" unicode="&#x0437;" d="M238 528Q238 575 222.50 591.50Q207 608 181 608Q155 608 139.50 592.50Q124 577 124 539L124 464L20 464L20 532Q20 617 61.50 662.50Q103 708 184 708Q265 708 306.50 662.50Q348 617 348 532L348 514Q348 402 271 370Q313 352 330.50 314.50Q348 277 348 223L348 168Q348 83 306.50 37.50Q265-8 184-8Q103-8 61.50 37.50Q20 83 20 168L20 256L124 256L124 161Q124 123 139.50 107.50Q155 92 181 92Q207 92 222.50 108Q238 124 238 171L238 226Q238 275 221 295Q204 315 166 315L149 315L149 415L172 415Q203 415 220.50 431Q238 447 238 489L238 528Z"  horiz-adv-x="369" vert-adv-y="1000"  />

      
      <glyph glyph-name="uni0438" unicode="&#x0438;" d="M105 0L25 0L25 700L123 700L123 281L294 700L374 700L374 0L275 0L275 397L105 0Z"  horiz-adv-x="400" vert-adv-y="1000"  />

      
      <glyph glyph-name="uni0439" unicode="&#x0439;" d="M102 0L22 0L22 700L120 700L120 281L291 700L371 700L371 0L272 0L272 397L102 0M198 802Q217 802 230 812Q243 822 244 848L324 848Q322 788 289.50 756Q257 724 198 724Q138 724 106 756Q74 788 70 848L151 848Q153 822 165.50 812Q178 802 198 802Z"  horiz-adv-x="393" vert-adv-y="1000"  />

      
      <glyph glyph-name="uni043A" unicode="&#x043A;" d="M355 504Q355 396 282 362Q324 345 339.50 306.50Q355 268 355 213L355 151Q355 130 358 119.50Q361 109 367.50 104.50Q374 100 383.50 100Q393 100 406 100L412 100L412 0L366 0Q315-1 285 27.50Q255 56 255 101L255 216Q255 265 233 285Q211 305 173 305L135 305L135 0L25 0L25 700L135 700L135 405L178 405Q209 405 232 421Q255 437 255 479L255 599Q255 644 285 672.50Q315 701 366 700L411 700L411 600L406 600Q393 600 383.50 600Q374 600 367.50 595.50Q361 591 358 580.50Q355 570 355 549L355 504Z"  horiz-adv-x="436" vert-adv-y="1000"  />

      
      <glyph glyph-name="uni043B" unicode="&#x043B;" d="M224 325Q224 241 216 179.50Q208 118 186 78Q164 38 125.50 19Q87 0 27 0L15 0L15 100L28 100Q58 100 76.50 116Q95 132 105 161.50Q115 191 118 233Q121 275 121 327L121 700L427 700L427 0L317 0L317 600L224 600L224 325Z"  horiz-adv-x="452" vert-adv-y="1000"  />

      
      <glyph glyph-name="uni043C" unicode="&#x043C;" d="M259 203L334 700L487 700L487 0L383 0L383 502L307 0L203 0L121 495L121 0L25 0L25 700L178 700L259 203Z"  horiz-adv-x="512" vert-adv-y="1000"  />

      
      <glyph glyph-name="uni043D" unicode="&#x043D;" d="M135 0L25 0L25 700L135 700L135 400L260 400L260 700L372 700L372 0L260 0L260 300L135 300L135 0Z"  horiz-adv-x="398" vert-adv-y="1000"  />

      
      <glyph glyph-name="uni043E" unicode="&#x043E;" d="M132 161Q132 123 147.50 107.50Q163 92 189 92Q215 92 230.50 107.50Q246 123 246 161L246 539Q246 577 230.50 592.50Q215 608 189 608Q163 608 147.50 592.50Q132 577 132 539L132 161M22 532Q22 617 65 662.50Q108 708 189 708Q270 708 313 662.50Q356 617 356 532L356 168Q356 83 313 37.50Q270-8 189-8Q108-8 65 37.50Q22 83 22 168L22 532Z"  horiz-adv-x="379" vert-adv-y="1000"  />

      
      <glyph glyph-name="uni043F" unicode="&#x043F;" d="M135 0L25 0L25 700L372 700L372 0L260 0L260 600L135 600L135 0Z"  horiz-adv-x="398" vert-adv-y="1000"  />

      
      <glyph glyph-name="uni0440" unicode="&#x0440;" d="M187 700Q270 700 310.50 656Q351 612 351 527L351 436Q351 351 310.50 307Q270 263 187 263L135 263L135 0L25 0L25 700L187 700M135 600L135 363L187 363Q213 363 227 377Q241 391 241 429L241 534Q241 572 227 586Q213 600 187 600L135 600Z"  horiz-adv-x="359" vert-adv-y="1000"  />

      
      <glyph glyph-name="uni0441" unicode="&#x0441;" d="M350 261L350 168Q350 83 308.50 37.50Q267-8 186-8Q105-8 63.50 37.50Q22 83 22 168L22 532Q22 617 63.50 662.50Q105 708 186 708Q267 708 308.50 662.50Q350 617 350 532L350 464L246 464L246 539Q246 577 230.50 592.50Q215 608 189 608Q163 608 147.50 592.50Q132 577 132 539L132 161Q132 123 147.50 108Q163 93 189 93Q215 93 230.50 108Q246 123 246 161L246 261L350 261Z"  horiz-adv-x="370" vert-adv-y="1000"  />

      
      <glyph glyph-name="uni0442" unicode="&#x0442;" d="M11 700L351 700L351 600L236 600L236 0L126 0L126 600L11 600L11 700Z"  horiz-adv-x="362" vert-adv-y="1000"  />

      
      <glyph glyph-name="uni0443" unicode="&#x0443;" d="M77 100Q86 99 91 99Q96 99 105 99Q118 99 131 102Q144 105 153.50 113Q163 121 167 135.50Q171 150 167 174L17 700L127 700L238 290L328 700L438 700L304 184Q286 127 269.50 91Q253 55 232 34.50Q211 14 184 6.50Q157-1 120-2Q105-2 98-2Q91-2 77 0L77 100Z"  horiz-adv-x="447" vert-adv-y="1000"  />

      
      <glyph glyph-name="uni0444" unicode="&#x0444;" d="M234 50L182 50Q99 50 58.50 94Q18 138 18 223L18 477Q18 562 58.50 606Q99 650 182 650L234 650L234 700L344 700L344 650L396 650Q479 650 519.50 606Q560 562 560 477L560 223Q560 138 519.50 94Q479 50 396 50L344 50L344 0L234 0L234 50M344 550L344 150L396 150Q422 150 436 164Q450 178 450 216L450 484Q450 522 436 536Q422 550 396 550L344 550M182 550Q156 550 142 536Q128 522 128 484L128 216Q128 178 142 164Q156 150 182 150L234 150L234 550L182 550Z"  horiz-adv-x="578" vert-adv-y="1000"  />

      
      <glyph glyph-name="uni0445" unicode="&#x0445;" d="M412 700L297 360L420 0L304 0L214 277L123 0L20 0L143 360L28 700L142 700L225 442L310 700L412 700Z"  horiz-adv-x="441" vert-adv-y="1000"  />

      
      <glyph glyph-name="uni0446" unicode="&#x0446;" d="M414 100L414-80L322-80Q322-56 321.50-40.50Q321-25 319.50-16Q318-7 313.50-3.50Q309 0 302 0L21 0L21 700L131 700L131 100L256 100L256 700L368 700L368 100L414 100Z"  horiz-adv-x="435" vert-adv-y="1000"  />

      
      <glyph glyph-name="uni0447" unicode="&#x0447;" d="M119 700L119 430Q119 392 134.50 377Q150 362 176 362Q201 362 216 375.50Q231 389 233 422L233 700L343 700L343 0L233 0L233 269Q219 264 204.50 262.50Q190 261 173 261Q92 261 50.50 306.50Q9 352 9 437L9 700L119 700Z"  horiz-adv-x="369" vert-adv-y="1000"  />

      
      <glyph glyph-name="uni0448" unicode="&#x0448;" d="M334 100L423 100L423 700L534 700L534 0L25 0L25 700L134 700L134 100L224 100L224 700L334 700L334 100Z"  horiz-adv-x="559" vert-adv-y="1000"  />

      
      <glyph glyph-name="uni0449" unicode="&#x0449;" d="M21 0L21 700L130 700L130 100L220 100L220 700L330 700L330 100L419 100L419 700L530 700L530 100L576 100L576-80L484-80Q484-56 483.50-40.50Q483-25 481.50-16Q480-7 475.50-3.50Q471 0 464 0L21 0Z"  horiz-adv-x="598" vert-adv-y="1000"  />

      
      <glyph glyph-name="uni044A" unicode="&#x044A;" d="M217 415L283 415Q366 415 406.50 371Q447 327 447 242L447 173Q447 88 406.50 44Q366 0 283 0L107 0L107 600L16 600L16 700L217 700L217 415M283 100Q309 100 323 114.50Q337 129 337 166L337 249Q337 286 323 300.50Q309 315 283 315L217 315L217 100L283 100Z"  horiz-adv-x="457" vert-adv-y="1000"  />

      
      <glyph glyph-name="uni044B" unicode="&#x044B;" d="M135 415L201 415Q284 415 324.50 371Q365 327 365 242L365 173Q365 88 324.50 44Q284 0 201 0L25 0L25 700L135 700L135 415M405 700L515 700L515 0L405 0L405 700M201 100Q227 100 241 114.50Q255 129 255 166L255 249Q255 286 241 300.50Q227 315 201 315L135 315L135 100L201 100Z"  horiz-adv-x="540" vert-adv-y="1000"  />

      
      <glyph glyph-name="uni044C" unicode="&#x044C;" d="M135 415L201 415Q284 415 324.50 371Q365 327 365 242L365 173Q365 88 324.50 44Q284 0 201 0L25 0L25 700L135 700L135 415M201 100Q227 100 241 114.50Q255 129 255 166L255 249Q255 286 241 300.50Q227 315 201 315L135 315L135 100L201 100Z"  horiz-adv-x="372" vert-adv-y="1000"  />

      
      <glyph glyph-name="uni044D" unicode="&#x044D;" d="M238 539Q238 577 222.50 592.50Q207 608 181 608Q155 608 139.50 592.50Q124 577 124 539L124 464L20 464L20 532Q20 617 61.50 662.50Q103 708 184 708Q265 708 306.50 662.50Q348 617 348 532L348 168Q348 83 306.50 37.50Q265-8 184-8Q103-8 61.50 37.50Q20 83 20 168L20 261L124 261L124 161Q124 123 139.50 108Q155 93 181 93Q207 93 222.50 108Q238 123 238 161L238 305L147 305L147 405L238 405L238 539Z"  horiz-adv-x="371" vert-adv-y="1000"  />

      
      </font>
</defs>
</svg>
